<svg width="615" height="615" viewBox="0 0 615 615" fill="none" xmlns="http://www.w3.org/2000/svg">
<g id="Counting stars-bro 1">
<g id="bg">
<path id="Vector" d="M564.287 203.749C539.306 137.096 492.689 79.1628 424.35 55.35C364.351 34.44 295.446 32.1153 234.635 51.1557C204.303 60.6636 175.595 75.9648 152.729 97.8219C124.439 124.771 110.528 160.183 98.4738 196.369C86.8749 230.994 81.7335 267.094 68.6586 301.35C54.5259 338.25 8.61004 412.148 23.9112 480.278C39.2124 548.408 65.1162 568.039 102.803 577.276C140.491 586.513 221.744 556.489 268.853 563.426C315.962 570.363 380.722 603.844 464.337 580.744C579.219 549.01 596.169 372.173 582.836 276.627C579.34 251.729 573.12 227.289 564.287 203.749Z"/>
</g>
<g id="freepik--Stars--inject-151">
<path id="Vector_2" d="M463.71 194.315C471.169 194.315 477.215 188.269 477.215 180.81C477.215 173.351 471.169 167.304 463.71 167.304C456.251 167.304 450.205 173.351 450.205 180.81C450.205 188.269 456.251 194.315 463.71 194.315Z" fill="#92E3A9"/>
<path id="Vector_3" d="M331.932 310.911C333.408 304.685 329.558 298.441 323.331 296.964C317.105 295.488 310.861 299.338 309.384 305.565C307.908 311.791 311.758 318.036 317.985 319.512C324.211 320.988 330.456 317.138 331.932 310.911Z" fill="#92E3A9"/>
<path id="Vector_4" d="M501.84 287.943C506.663 287.943 510.573 284.033 510.573 279.21C510.573 274.387 506.663 270.477 501.84 270.477C497.017 270.477 493.107 274.387 493.107 279.21C493.107 284.033 497.017 287.943 501.84 287.943Z" fill="#92E3A9"/>
<path id="Vector_5" d="M207.575 169.974C212.398 169.974 216.308 166.064 216.308 161.241C216.308 156.417 212.398 152.508 207.575 152.508C202.752 152.508 198.842 156.417 198.842 161.241C198.842 166.064 202.752 169.974 207.575 169.974Z" fill="#92E3A9"/>
<path id="Vector_6" d="M542.864 196.988C543.635 192.227 540.401 187.743 535.64 186.972C530.879 186.2 526.394 189.435 525.623 194.196C524.852 198.957 528.086 203.442 532.847 204.213C537.608 204.984 542.093 201.75 542.864 196.988Z" fill="#DBDBDB"/>
<path id="Vector_7" d="M553.211 347.133C554.322 342.439 551.418 337.734 546.725 336.623C542.031 335.511 537.326 338.415 536.215 343.109C535.103 347.802 538.007 352.507 542.701 353.619C547.394 354.73 552.1 351.826 553.211 347.133Z" fill="#92E3A9"/>
<path id="Vector_8" d="M295.878 104.887C296.678 100.131 293.471 95.6262 288.715 94.826C283.958 94.0258 279.454 97.2328 278.654 101.989C277.854 106.745 281.061 111.25 285.817 112.05C290.573 112.85 295.077 109.643 295.878 104.887Z" fill="#92E3A9"/>
<path id="Vector_9" d="M366.306 82.5329C369.533 82.5329 372.149 79.9171 372.149 76.6904C372.149 73.4637 369.533 70.8479 366.306 70.8479C363.08 70.8479 360.464 73.4637 360.464 76.6904C360.464 79.9171 363.08 82.5329 366.306 82.5329Z" fill="#DBDBDB"/>
<path id="Vector_10" d="M384.621 252.15C379.763 252.703 379.32 253.146 378.779 257.992C378.225 253.146 377.782 252.703 372.936 252.15C377.782 251.609 378.225 251.166 378.779 246.307C379.32 251.104 379.763 251.547 384.621 252.15Z" fill="#92E3A9"/>
<path id="Vector_11" d="M425.678 344.191C428.905 344.191 431.521 341.575 431.521 338.348C431.521 335.122 428.905 332.506 425.678 332.506C422.452 332.506 419.836 335.122 419.836 338.348C419.836 341.575 422.452 344.191 425.678 344.191Z" fill="#92E3A9"/>
<path id="Vector_12" d="M376.306 420.365C379.533 420.365 382.149 417.749 382.149 414.522C382.149 411.295 379.533 408.68 376.306 408.68C373.079 408.68 370.464 411.295 370.464 414.522C370.464 417.749 373.079 420.365 376.306 420.365Z" fill="#92E3A9"/>
<path id="Vector_13" d="M506.022 437.154C509.249 437.154 511.864 434.538 511.864 431.312C511.864 428.085 509.249 425.469 506.022 425.469C502.795 425.469 500.179 428.085 500.179 431.312C500.179 434.538 502.795 437.154 506.022 437.154Z" fill="#92E3A9"/>
<path id="Vector_14" d="M553.5 411.742C556.727 411.742 559.342 409.127 559.342 405.9C559.342 402.673 556.727 400.057 553.5 400.057C550.273 400.057 547.657 402.673 547.657 405.9C547.657 409.127 550.273 411.742 553.5 411.742Z" fill="#DBDBDB"/>
<path id="Vector_15" d="M357.008 367.462C360.234 367.462 362.85 364.847 362.85 361.62C362.85 358.393 360.234 355.777 357.008 355.777C353.781 355.777 351.165 358.393 351.165 361.62C351.165 364.847 353.781 367.462 357.008 367.462Z" fill="#DBDBDB"/>
<path id="Vector_16" d="M240.785 339.05C235.926 339.591 235.483 340.046 234.942 344.892C234.389 340.046 233.946 339.591 229.087 339.05C233.946 338.496 234.389 338.053 234.942 333.207C235.483 338.053 235.926 338.496 240.785 339.05Z" fill="#92E3A9"/>
<path id="Vector_17" d="M537.682 260.944C539.836 260.944 541.581 259.199 541.581 257.045C541.581 254.892 539.836 253.146 537.682 253.146C535.529 253.146 533.783 254.892 533.783 257.045C533.783 259.199 535.529 260.944 537.682 260.944Z" fill="#92E3A9"/>
<path id="Vector_18" d="M464.399 340.316C466.552 340.316 468.298 338.571 468.298 336.417C468.298 334.264 466.552 332.518 464.399 332.518C462.245 332.518 460.5 334.264 460.5 336.417C460.5 338.571 462.245 340.316 464.399 340.316Z" fill="#DBDBDB"/>
<path id="Vector_19" d="M398.237 164.758C400.39 164.758 402.136 163.013 402.136 160.859C402.136 158.706 400.39 156.96 398.237 156.96C396.084 156.96 394.338 158.706 394.338 160.859C394.338 163.013 396.084 164.758 398.237 164.758Z" fill="#DBDBDB"/>
<path id="Vector_20" d="M419.184 90.2203C421.337 90.2203 423.083 88.4746 423.083 86.3212C423.083 84.1678 421.337 82.4221 419.184 82.4221C417.031 82.4221 415.285 84.1678 415.285 86.3212C415.285 88.4746 417.031 90.2203 419.184 90.2203Z" fill="#92E3A9"/>
<path id="Vector_21" d="M280.809 165.828C281.882 165.828 282.753 164.958 282.753 163.885C282.753 162.812 281.882 161.942 280.809 161.942C279.736 161.942 278.866 162.812 278.866 163.885C278.866 164.958 279.736 165.828 280.809 165.828Z" fill="#DBDBDB"/>
<path id="Vector_22" d="M223.516 109.704C224.589 109.704 225.459 108.834 225.459 107.76C225.459 106.687 224.589 105.817 223.516 105.817C222.442 105.817 221.572 106.687 221.572 107.76C221.572 108.834 222.442 109.704 223.516 109.704Z" fill="#DBDBDB"/>
<path id="Vector_23" d="M302.248 65.6573C303.321 65.6573 304.191 64.7872 304.191 63.7139C304.191 62.6406 303.321 61.7705 302.248 61.7705C301.175 61.7705 300.304 62.6406 300.304 63.7139C300.304 64.7872 301.175 65.6573 302.248 65.6573Z" fill="#DBDBDB"/>
<path id="Vector_24" d="M450.697 434.903C451.77 434.903 452.64 434.033 452.64 432.96C452.64 431.887 451.77 431.017 450.697 431.017C449.623 431.017 448.753 431.887 448.753 432.96C448.753 434.033 449.623 434.903 450.697 434.903Z" fill="#92E3A9"/>
<path id="Vector_25" d="M311.19 249.173C312.263 249.173 313.133 248.303 313.133 247.23C313.133 246.157 312.263 245.287 311.19 245.287C310.117 245.287 309.247 246.157 309.247 247.23C309.247 248.303 310.117 249.173 311.19 249.173Z" fill="#DBDBDB"/>
<path id="Vector_26" d="M453.157 272.543C454.23 272.543 455.1 271.673 455.1 270.6C455.1 269.527 454.23 268.656 453.157 268.656C452.083 268.656 451.213 269.527 451.213 270.6C451.213 271.673 452.083 272.543 453.157 272.543Z" fill="#DBDBDB"/>
<path id="Vector_27" d="M172.717 116.333C173.79 116.333 174.66 115.463 174.66 114.39C174.66 113.317 173.79 112.447 172.717 112.447C171.643 112.447 170.773 113.317 170.773 114.39C170.773 115.463 171.643 116.333 172.717 116.333Z" fill="#92E3A9"/>
<path id="Vector_28" d="M253.897 377.093C254.97 377.093 255.84 376.223 255.84 375.15C255.84 374.077 254.97 373.207 253.897 373.207C252.823 373.207 251.953 374.077 251.953 375.15C251.953 376.223 252.823 377.093 253.897 377.093Z" fill="#DBDBDB"/>
<path id="Vector_29" d="M535.567 454.583C536.64 454.583 537.51 453.713 537.51 452.64C537.51 451.567 536.64 450.697 535.567 450.697C534.493 450.697 533.623 451.567 533.623 452.64C533.623 453.713 534.493 454.583 535.567 454.583Z" fill="#92E3A9"/>
<path id="Vector_30" d="M468.63 474.78C469.703 474.78 470.573 473.91 470.573 472.836C470.573 471.763 469.703 470.893 468.63 470.893C467.557 470.893 466.687 471.763 466.687 472.836C466.687 473.91 467.557 474.78 468.63 474.78Z" fill="#92E3A9"/>
<path id="Vector_31" d="M508.396 128.793C503.537 129.347 503.095 129.789 502.553 134.636C502 129.789 501.557 129.347 496.711 128.793C501.557 128.252 502 127.809 502.553 122.951C503.07 127.809 503.537 128.252 508.396 128.793Z" fill="#DBDBDB"/>
<path id="Vector_32" d="M440.82 102.434C438.47 102.114 436.072 101.856 433.71 101.672L433.796 100.442C436.195 100.626 438.606 100.897 440.992 101.217L440.82 102.434Z" fill="#DBDBDB"/>
<path id="Vector_33" d="M501.139 128.301C500.93 128.117 480.008 109.667 446.638 103.394L446.871 102.164C480.598 108.511 501.742 127.182 501.951 127.367L501.139 128.301Z" fill="#DBDBDB"/>
</g>
<g id="freepik--Mountains--inject-151">
<path id="Vector_34" d="M551.507 504.448C540.437 497.068 526.342 488.31 522.75 488.31C516.6 488.31 464.94 512.91 457.56 511.68C450.18 510.45 339.48 426.81 312.42 423.12C286.836 419.627 55.7437 496.367 30.5164 504.78C46.2604 553.402 70.0978 569.256 102.803 577.276C140.491 586.513 221.744 556.489 268.853 563.426C315.962 570.363 380.722 603.844 464.337 580.745C504.3 569.699 532.406 541.089 551.507 504.448Z" fill="#263238"/>
</g>
<g id="freepik--Characters--inject-151">
<path id="Vector_35" d="M89.1136 504.854C90.7244 508.263 92.8853 511.383 95.5096 514.091V575.296C97.8958 576.009 100.319 576.673 102.803 577.276C124.304 582.553 159.998 575.037 195.435 568.912C194.648 552.578 193.442 524.73 193.934 515.161C194.648 501.299 198.854 477.498 198.854 477.498C198.854 477.498 130.995 482.418 112.164 480.34C93.3325 478.261 82.6438 476.072 82.6438 476.072L84.415 481.754C84.415 481.754 86.9857 499.884 89.1136 504.854Z" fill="#525252" stroke="#263238" stroke-linecap="round" stroke-linejoin="round"/>
<path id="Vector_36" d="M70.2823 466.477C70.2823 466.477 68.8555 479.626 70.639 481.754C72.4225 483.882 86.2723 493.131 102.976 494.189C119.679 495.247 148.092 498.101 156.628 497.031C165.164 495.96 184.697 491.348 190.736 489.933C196.775 488.519 202.815 485.309 206.726 483.181C210.638 481.053 210.982 480.721 212.409 478.199C213.836 475.678 213.122 462.566 213.122 462.566C198.157 468.488 182.522 472.548 166.567 474.657C139.925 478.199 103.32 472.517 90.5281 467.904C77.7361 463.292 69.9256 462.566 69.9256 462.566L70.2823 466.477Z" fill="white" stroke="#263238" stroke-linecap="round" stroke-linejoin="round"/>
<path id="Vector_37" d="M281.978 196.702C281.978 196.702 296.049 182.237 300.747 176.37C305.446 170.503 320.686 157.993 324.597 154.869C328.508 151.745 339.062 148.609 339.837 150.564C340.612 152.52 339.062 156.825 336.319 157.6C333.576 158.375 323.81 166.21 323.81 166.21L321.854 168.166C324.563 169.466 327.052 171.18 329.234 173.245C332.371 176.37 332.371 187.71 329.234 192.79C326.007 198.085 321.056 202.107 315.212 204.18C311.383 205.417 307.458 206.335 303.478 206.923L289.8 216.689L281.978 196.702Z" fill="white" stroke="#263238" stroke-linecap="round" stroke-linejoin="round"/>
<path id="Vector_38" d="M335.63 184.119C336.265 184.79 336.738 185.598 337.011 186.481C337.284 187.364 337.35 188.298 337.205 189.211C336.811 192.556 332.285 197.255 330.919 198.239C329.554 199.223 324.449 199.223 324.449 197.845C324.449 196.468 327.98 192.556 329.16 191.572C330.341 190.588 335.63 184.119 335.63 184.119Z" fill="white" stroke="#263238" stroke-linecap="round" stroke-linejoin="round"/>
<path id="Vector_39" d="M333.675 176.862C333.675 176.862 336.614 178.424 337.008 181.179C337.401 183.934 332.494 189.789 330.919 191.572C329.83 192.67 328.506 193.505 327.046 194.014C325.586 194.523 324.029 194.694 322.494 194.512C319.357 193.922 321.264 189.408 322.1 188.633C322.937 187.858 329.16 180.982 329.948 180.195C330.735 179.408 333.675 176.862 333.675 176.862Z" fill="white" stroke="#263238" stroke-linecap="round" stroke-linejoin="round"/>
<path id="Vector_40" d="M325.237 177.12C325.237 177.12 318.373 187.907 318.964 189.272C319.554 190.638 322.494 190.847 324.253 190.256C326.012 189.666 331.731 180.638 333.588 177.956C335.446 175.275 335.04 173.947 332.494 172.963C330.327 172.356 328.067 172.156 325.827 172.372L325.237 177.12Z" fill="white" stroke="#263238" stroke-linecap="round" stroke-linejoin="round"/>
<g id="Vector_41">
<path d="M304.265 175.976L318.73 167.772C318.73 167.772 333.588 173.245 334.72 174.02C335.852 174.795 337.069 176.37 333.49 177.932C329.911 179.494 320.194 177.932 320.194 177.932C320.194 177.932 315.114 192.015 310.415 193.922C308.006 194.963 305.542 195.875 303.035 196.652" fill="white"/>
<path d="M304.265 175.976L318.73 167.772C318.73 167.772 333.588 173.245 334.72 174.02C335.852 174.795 337.069 176.37 333.49 177.932C329.911 179.494 320.194 177.932 320.194 177.932C320.194 177.932 315.114 192.015 310.415 193.922C308.006 194.963 305.542 195.875 303.035 196.652" stroke="#263238" stroke-linecap="round" stroke-linejoin="round"/>
</g>
<path id="Vector_42" d="M193.577 251.867C193.577 251.867 213.479 243.688 218.448 241.203C223.417 238.718 233.368 231.252 239.764 227.673C246.16 224.094 283.835 193.922 283.835 193.922C283.835 193.922 290.575 204.229 291.289 210.269C292.002 216.308 295.913 228.386 295.913 228.386L282.051 240.121C282.051 240.121 269.259 251.129 261.793 260.723C254.327 270.317 228.042 286.664 219.875 291.99C211.708 297.316 201.72 307.291 199.973 312.272C198.711 316.218 197.761 320.257 197.132 324.351C197.132 324.351 211.695 422.062 211.695 427.044C211.695 432.025 215.25 460.438 215.25 462.923C215.25 465.407 203.885 473.993 192.507 478.913C181.13 483.833 142.409 481.373 121.807 481.373C101.204 481.373 70.6389 469.651 67.7976 468.236C64.9563 466.822 66.7275 456.502 66.7275 456.502L73.1235 404.276C73.1235 404.276 79.5195 353.108 80.9463 343.871C82.3731 334.634 89.4702 301.584 91.2414 295.544C93.0126 289.505 98.4 283.134 109.015 278.165C119.63 273.195 172.975 260.391 180.429 256.48C184.533 254.24 188.974 252.682 193.577 251.867Z" fill="#92E3A9" stroke="#263238" stroke-linecap="round" stroke-linejoin="round"/>
<path id="Vector_43" d="M199.58 294.154C200.207 291.694 200.687 289.886 200.687 289.886" stroke="#263238" stroke-linecap="round" stroke-linejoin="round"/>
<path id="Vector_44" d="M197.132 324.351C197.132 324.351 196.419 312.272 196.775 307.648C197.215 304.303 197.855 300.988 198.694 297.721" stroke="#263238" stroke-linecap="round" stroke-linejoin="round"/>
<path id="Vector_45" d="M208.792 281.35C209.321 279.825 209.813 278.497 210.281 277.451" stroke="#263238" stroke-linecap="round" stroke-linejoin="round"/>
<path id="Vector_46" d="M200.49 310.341C200.49 310.341 204.377 294.979 207.772 284.511" stroke="#263238" stroke-linecap="round" stroke-linejoin="round"/>
<path id="Vector_47" d="M258.3 246.467C257.132 249.21 255.988 251.842 254.893 254.278" stroke="#263238" stroke-linecap="round" stroke-linejoin="round"/>
<path id="Vector_48" d="M274.622 205.927C274.622 205.927 268.066 223.06 261.289 239.383" stroke="#263238" stroke-linecap="round" stroke-linejoin="round"/>
<path id="Vector_49" d="M262.544 245.373C262.544 245.373 259.997 257.463 254.905 264.462" stroke="#263238" stroke-linecap="round" stroke-linejoin="round"/>
<path id="Vector_50" d="M268.14 206.738C268.14 206.738 273.478 219.174 275.606 225.926C277.086 230.828 278.289 235.809 279.21 240.846" stroke="#263238" stroke-linecap="round" stroke-linejoin="round"/>
<path id="Vector_51" d="M127.157 281.572C127.157 281.572 140.257 293.293 147.157 298.792C154.058 304.29 154.746 308.447 161.302 312.58C167.858 316.713 181.302 335.003 181.302 335.003C181.302 335.003 183.368 312.924 185.09 304.253C186.812 295.581 179.924 275.631 176.48 269.813C173.036 263.995 139.236 252.15 134.07 257.377C128.904 262.605 123.726 277.057 124.759 278.472C125.792 279.886 127.157 281.572 127.157 281.572Z" fill="white" stroke="#263238" stroke-linecap="round" stroke-linejoin="round"/>
<path id="Vector_52" d="M176.874 317.598C176.874 317.598 161.597 309.788 153.43 301.608C145.263 293.429 131.044 277.451 131.044 274.253C131.044 271.055 134.07 257.377 134.07 257.377C134.07 257.377 156.997 267.857 161.253 267.857C165.509 267.857 172.975 272.777 177.243 280.649C181.511 288.521 181.868 295.926 182.163 298.767C182.458 301.608 183.577 320.439 183.577 320.439C183.577 320.439 187.489 305.52 189.617 296.996C191.745 288.472 195.299 284.905 191.757 278.164C188.215 271.424 181.142 263.22 174.033 260.391C166.923 257.562 139.593 250.797 129.261 254.708C118.929 258.62 102.201 265.016 90.8847 271.412C79.5687 277.808 79.8147 279.936 78.0927 288.103C76.3707 296.27 67.0227 325.778 68.4987 330.033C69.9747 334.289 77.3916 324.708 81.6474 318.668C85.9032 312.629 95.5095 295.926 99.4209 292.371C103.332 288.816 117.539 288.459 121.093 290.243C124.648 292.026 142.003 301.608 148.449 304.806C154.894 308.004 177.969 322.223 177.969 322.223L181.167 323.994L176.874 317.598Z" fill="white" stroke="#263238" stroke-linecap="round" stroke-linejoin="round"/>
<path id="Vector_53" d="M173.233 299.48L183.098 277.623L175.103 273.097L173.233 299.48Z" fill="white" stroke="#263238" stroke-linecap="round" stroke-linejoin="round"/>
<path id="Vector_54" d="M183.098 277.623L186.025 294.154L178.559 288.287L183.098 277.623Z" fill="white" stroke="#263238" stroke-linecap="round" stroke-linejoin="round"/>
<path id="Vector_55" d="M182.557 260.575C182.557 260.575 177.501 265.372 177.231 267.5C176.96 269.628 173.233 299.48 173.233 299.48L165.509 281.092C165.509 281.092 134.857 268.57 131.61 266.172C128.363 263.773 134.279 249.911 134.279 249.911C134.279 249.911 124.156 243.761 122.816 236.049C121.475 228.337 125.276 221.929 132.151 221.4C139.027 220.871 147.342 229.124 151.069 233.392C154.796 237.661 164.918 248.841 166.517 250.44C168.116 252.039 182.557 260.575 182.557 260.575Z" fill="white" stroke="#263238" stroke-linecap="round" stroke-linejoin="round"/>
<path id="Vector_56" d="M113.812 242.716C113.812 242.716 112.742 246.184 117.01 250.182C119.876 252.686 123.38 254.347 127.133 254.979C127.133 254.979 125.005 258.177 127.133 258.669C129.261 259.161 133.283 253.601 133.283 253.601C133.283 253.601 129.593 257.07 134.082 257.291C138.572 257.513 142.877 251.424 142.877 247.697C142.877 243.97 140.749 236.763 140.749 236.763C140.749 236.763 147.944 235.164 150.872 230.108C153.799 225.053 150.872 217.575 150.614 212.519C150.44 209.389 150.083 206.272 149.543 203.184C149.543 203.184 126.629 223.971 120.491 229.567C116.989 232.623 114.251 236.456 112.496 240.76L113.812 242.716Z" fill="#263238" stroke="#263238" stroke-linecap="round" stroke-linejoin="round"/>
<path id="Vector_57" d="M170.872 188.719C170.872 188.719 178.375 197.218 179.371 201.216C180.367 205.213 180.367 208.706 183.368 209.715C186.37 210.723 191.868 211.707 191.363 215.705C191.211 216.888 190.824 218.029 190.224 219.06C189.624 220.091 188.824 220.991 187.87 221.707C187.87 221.707 191.991 228.94 191.991 231.437C191.991 233.934 189.297 233.638 188.079 234.13C185.663 235.15 183.376 236.45 181.265 238.005C183.124 238.131 184.99 238.131 186.849 238.005C189.506 237.857 193.54 236.197 194.229 237.267C195.73 239.727 198.916 246.652 199.408 249.653C199.9 252.654 195.41 257.648 188.916 260.637C182.421 263.626 155.029 259.665 153.037 258.669C151.044 257.673 141.844 242.679 141.844 242.679C141.844 242.679 132.815 243.983 129.31 239.481C125.804 234.979 126.456 227.661 129.949 225.164C133.443 222.667 136.948 223.663 137.944 225.164C139.8 227.316 141.792 229.345 143.91 231.24L144.402 228.78L149.408 226.787C148.848 225.403 148.177 224.066 147.403 222.79C146.407 221.289 145.903 219.284 146.407 215.791C146.676 212.8 146.676 209.791 146.407 206.8L170.872 188.719Z" fill="white" stroke="#263238" stroke-linecap="round" stroke-linejoin="round"/>
<path id="Vector_58" d="M187.87 221.707C184.607 224.295 181.486 227.059 178.522 229.985C171.142 236.861 170.958 237.365 173.024 240.526C175.091 243.688 175.767 248.767 176.456 252.667C177.145 256.566 178.744 261.83 183.332 262.285C187.919 262.74 195.472 258.398 198.682 255.409C201.892 252.421 200.281 248.312 199.137 246.48C197.993 244.647 197.071 240.526 195.705 241.437C194.34 242.347 195.017 243.269 195.017 244.192C195.017 245.114 189.974 245.791 186.308 246.246C182.643 246.701 177.145 241.892 176.222 240.526C175.3 239.161 184.02 232.273 185.853 231.363C187.686 230.453 192.261 231.363 192.261 227.673C192.261 223.983 191.486 221.671 187.87 221.707Z" fill="#263238" stroke="#263238" stroke-linecap="round" stroke-linejoin="round"/>
<path id="Vector_59" d="M181.72 236.172L180.576 238.915" stroke="#263238" stroke-linecap="round" stroke-linejoin="round"/>
<path id="Vector_60" d="M179.666 221.043C179.666 221.043 179.432 223.503 181.72 223.798C184.008 224.094 187.87 221.707 187.87 221.707" stroke="#263238" stroke-linecap="round" stroke-linejoin="round"/>
<path id="Vector_61" d="M170.244 216.295C172.082 215.137 174.007 214.121 176.001 213.257" stroke="#263238" stroke-linecap="round" stroke-linejoin="round"/>
<path id="Vector_62" d="M173.307 209.666C174.045 211.203 173.934 212.79 173.086 213.196C172.237 213.602 170.933 212.679 170.208 211.129C169.482 209.58 169.58 208.005 170.441 207.599C171.302 207.193 172.581 208.116 173.307 209.666Z" fill="#263238"/>
<path id="Vector_63" d="M165.226 206.849C165.226 206.849 166.149 199.469 172.791 201.117" stroke="#263238" stroke-width="2" stroke-linecap="round" stroke-linejoin="round"/>
<path id="Vector_64" d="M168.879 178.731C168.879 178.731 166.419 170.736 149.396 168.239C134.64 166.207 119.618 168.825 106.42 175.73C95.9278 181.228 87.4285 185.226 86.9242 187.723C86.4199 190.22 89.3842 192.224 89.3842 192.224C88.7258 200.76 90.1306 209.328 93.4801 217.206C98.9167 229.703 102.914 231.24 102.914 231.24C102.914 231.24 137.403 191.216 168.879 178.731Z" fill="#858585" stroke="#263238" stroke-linecap="round" stroke-linejoin="round"/>
<path id="Vector_65" d="M96.4198 236.689C96.4198 236.689 107.92 247.685 109.95 247.685C111.979 247.685 129.937 225.201 139.937 216.209C149.937 207.218 174.377 191.216 174.377 191.216C174.654 189.23 174.818 187.23 174.869 185.226C174.869 182.766 170.872 175.226 168.879 174.23C166.886 173.233 129.9 192.224 115.411 206.21C100.922 220.195 91.9303 233.196 96.4198 236.689Z" fill="#858585" stroke="#263238" stroke-linecap="round" stroke-linejoin="round"/>
<path id="Vector_66" d="M100.995 234.057C104.159 236.288 107.444 238.341 110.835 240.207C112.422 240.822 114.747 240.945 115.472 240.453" stroke="#263238" stroke-linecap="round" stroke-linejoin="round"/>
<path id="Vector_67" d="M97.453 229.001C97.2562 229.565 97.2443 230.177 97.419 230.747C97.5938 231.318 97.9461 231.818 98.4247 232.175L99.1135 232.716" stroke="#263238" stroke-linecap="round" stroke-linejoin="round"/>
<path id="Vector_68" d="M115.497 232.876C116.237 233.43 117.07 233.847 117.957 234.106C119.421 234.106 122.594 233.86 122.594 233.86" stroke="#263238" stroke-linecap="round" stroke-linejoin="round"/>
<path id="Vector_69" d="M103.554 219.961C103.554 219.961 102.828 222.888 104.538 224.598C107.183 226.915 109.955 229.083 112.84 231.092" stroke="#263238" stroke-linecap="round" stroke-linejoin="round"/>
<path id="Vector_70" d="M119.593 221.621C121.852 223.445 124.25 225.09 126.764 226.541C127.49 226.541 129.445 226.295 129.445 226.295" stroke="#263238" stroke-linecap="round" stroke-linejoin="round"/>
<path id="Vector_71" d="M111.131 211.166C110.946 212.096 111.006 213.058 111.306 213.957C111.606 214.857 112.135 215.662 112.84 216.295C113.566 216.947 115.03 218.128 116.752 219.456" stroke="#263238" stroke-linecap="round" stroke-linejoin="round"/>
<path id="Vector_72" d="M129.372 215.914C130.554 216.982 131.899 217.854 133.357 218.497" stroke="#263238" stroke-linecap="round" stroke-linejoin="round"/>
<path id="Vector_73" d="M118.941 204.328C118.941 204.328 120.897 208.965 122.361 210.195C122.951 210.674 124.636 212.114 126.53 213.651" stroke="#263238" stroke-linecap="round" stroke-linejoin="round"/>
<path id="Vector_74" d="M129.002 259.53C129.002 259.53 150.318 273.122 154.045 275.52C157.741 277.632 161.571 279.501 165.509 281.117L157.243 302.961C157.243 302.961 141.794 290.981 134.857 282.986C127.92 274.991 124.464 264.302 129.002 259.53Z" fill="white" stroke="#263238" stroke-linecap="round" stroke-linejoin="round"/>
<path id="Vector_75" d="M186.825 325.064C189.163 327.59 190.87 330.633 191.806 333.945C193.221 339.271 196.899 343.846 198.547 344.609C203.614 346.909 206.37 349.529 204.586 353.846C202.803 358.164 201.044 358.459 201.044 358.459C201.044 358.459 201.388 373.034 200.33 378.003C199.272 382.973 193.934 383.329 189.26 383.686C186.163 383.86 183.057 383.62 180.023 382.973V401.816C180.023 401.816 164.746 398.262 159.777 397.905C154.808 397.548 149.47 397.548 149.47 397.548L149.826 387.241C149.826 387.241 149.47 388.311 146.628 389.024C143.787 389.738 141.29 388.668 142.36 387.597C143.068 386.786 143.559 385.809 143.787 384.756C139.407 383.039 135.327 380.639 131.696 377.647C125.657 372.727 130.638 360.943 140.232 349.935C149.826 338.926 156.936 333.231 169.752 327.192C182.569 321.153 186.825 325.064 186.825 325.064Z" fill="white" stroke="#263238" stroke-linecap="round" stroke-linejoin="round"/>
<path id="Vector_76" d="M167.108 351.005C165.28 347.962 164.526 344.393 164.968 340.87C162.399 340.77 159.86 341.452 157.686 342.826C154.168 345.015 138.105 357.032 130.503 365.089C128.437 370.439 128.535 375.002 131.733 377.647C135.363 380.639 139.444 383.039 143.824 384.756C143.596 385.809 143.105 386.786 142.397 387.598C141.327 388.668 143.824 389.726 146.665 389.024C149.507 388.323 149.863 387.241 149.863 387.241V388.532C149.863 388.532 150.921 387.647 151.635 386.933C152.348 386.22 154.66 382.85 154.66 382.85L155.189 385.691C155.899 385.555 156.57 385.264 157.155 384.838C157.74 384.413 158.223 383.864 158.572 383.231C159.986 380.919 162.262 373.637 162.262 373.637C160.839 374.012 159.35 374.063 157.904 373.786C156.459 373.51 155.094 372.912 153.91 372.038C149.642 369.012 148.043 361.202 150.22 359.603C152.397 358.004 155.14 358.004 158.387 359.074C161.092 360.187 163.656 361.616 166.026 363.33C166.024 361.952 165.846 360.579 165.497 359.246C165.1 358.188 164.493 357.222 163.713 356.405C165.249 356.593 166.802 356.593 168.338 356.405C169.446 356.172 170.576 356.053 171.708 356.048C171.708 356.048 170.121 355.618 167.108 351.005Z" fill="#263238" stroke="#263238" stroke-linecap="round" stroke-linejoin="round"/>
<path id="Vector_77" d="M189.42 344.019C189.912 345.79 189.74 347.389 189.027 347.586C188.313 347.782 187.341 346.516 186.849 344.744C186.357 342.973 186.53 341.374 187.231 341.177C187.932 340.981 188.94 342.247 189.42 344.019Z" fill="#263238"/>
<path id="Vector_78" d="M195.57 364.24C195.57 364.24 189.42 363.699 185.976 361.042C185.976 361.042 184.906 367.438 188.375 368.496C191.843 369.553 195.57 364.24 195.57 364.24Z" fill="#263238" stroke="#263238" stroke-linecap="round" stroke-linejoin="round"/>
<path id="Vector_79" d="M180.958 338.656C180.958 338.656 181.757 333.588 185.755 333.588" stroke="#263238" stroke-linecap="round" stroke-linejoin="round"/>
<path id="Vector_80" d="M133.886 570.585L134.156 578.408C154.71 576.624 179.1 571.593 202.913 567.645C202.913 564.521 202.815 561.753 202.815 560.634C202.815 557.436 205.656 540.031 205.656 540.031C205.656 540.031 166.567 548.199 151.647 546.428C143.24 545.532 134.994 543.501 127.133 540.388C127.133 540.388 125.706 553.18 127.133 559.22C128.56 565.259 133.886 570.585 133.886 570.585Z" fill="#92E3A9" stroke="#263238" stroke-linecap="round" stroke-linejoin="round"/>
<path id="Vector_81" d="M118.609 525.813V540.388C118.609 540.388 138.141 549.626 153.43 550.339C168.719 551.052 193.577 547.141 198.547 545.357C203.516 543.574 214.18 536.477 214.18 536.477L210.637 524.398C210.637 524.398 183.27 531.151 167.28 531.508C151.29 531.864 132.459 527.596 128.203 525.813C123.947 524.029 119.31 522.615 119.31 522.615L118.609 525.813Z" fill="white" stroke="#263238" stroke-linecap="round" stroke-linejoin="round"/>
<path id="Vector_82" d="M127.49 438.766C127.49 438.766 117.182 520.13 117.182 525.468C117.182 530.806 140.995 541.102 165.152 539.675C189.309 538.248 209.567 531.151 212.052 526.883C214.537 522.615 209.924 506.981 209.924 505.567C209.924 504.152 194.34 429.885 193.577 428.458C192.815 427.031 191.117 420.291 187.181 414.928C183.245 409.565 156.272 401.792 144.537 406.048C132.803 410.303 128.547 421.324 128.203 426.306C127.859 431.287 127.49 438.766 127.49 438.766Z" fill="white" stroke="#263238" stroke-linecap="round" stroke-linejoin="round"/>
<path id="Vector_83" d="M130.687 403.944C130.687 403.944 115.054 420.291 115.768 424.547C116.481 428.803 120.38 441.25 122.508 442.677C124.636 444.104 126.419 442.677 128.547 441.25C130.675 439.823 149.162 418.507 152.003 415.309C154.845 412.111 176.874 414.252 179.063 414.608C181.253 414.965 190.785 424.903 191.855 426.33C192.925 427.757 198.952 432.37 193.627 423.132C188.301 413.895 182.557 400.033 177.28 398.262C172.003 396.49 159.875 388.668 148.498 393.637C142.145 396.298 136.16 399.762 130.687 403.944Z" fill="white" stroke="#263238" stroke-linecap="round" stroke-linejoin="round"/>
<path id="Vector_84" d="M258.3 408.212C258.3 408.212 276.061 390.796 276.75 389.762C277.439 388.729 283.503 384.842 287.045 382.665C290.588 380.488 303.035 378.754 303.392 381.595C303.749 384.436 298.472 384.436 296.295 385.15C294.118 385.863 287.759 390.476 287.759 390.476C290.608 390.437 293.458 390.557 296.295 390.832C297.353 391.189 299.493 400.427 299.493 401.497C299.493 402.567 294.155 407.536 293.441 408.594C292.728 409.651 288.521 409.664 288.521 409.664L287.808 405.051C287.808 405.051 281.768 411.792 279.284 412.862C276.626 413.722 273.891 414.319 271.117 414.645L263.22 419.221L258.3 408.212Z" fill="white" stroke="#263238" stroke-linecap="round" stroke-linejoin="round"/>
<path id="Vector_85" d="M287.734 405.014L294.13 401.46" stroke="#263238" stroke-linecap="round" stroke-linejoin="round"/>
<path id="Vector_86" d="M246.16 413.181C246.16 413.181 256.111 405.715 257.537 405.715C258.964 405.715 268.607 418.507 269.259 419.934C269.911 421.361 268.189 425.617 267.131 425.973C266.074 426.33 257.181 432.369 257.181 432.369L246.16 413.181Z" fill="white" stroke="#263238" stroke-linecap="round" stroke-linejoin="round"/>
<g id="Vector_87">
<path d="M174.033 419.934C179.359 422.062 208.854 434.19 208.854 434.19C208.854 434.19 240.834 413.944 243.294 412.517C245.754 411.091 250.76 412.874 251.83 413.587C252.9 414.301 262.482 429.221 260.711 433.132C258.94 437.044 235.483 459.417 225.889 465.457C216.295 471.496 209.899 474.706 202.79 475.051C195.681 475.395 178.276 469.368 165.127 462.615C151.979 455.863 143.098 444.497 143.098 435.617C143.098 426.736 156.271 418.2 163.369 418.2" fill="white"/>
<path d="M174.033 419.934C179.359 422.062 208.854 434.19 208.854 434.19C208.854 434.19 240.834 413.944 243.294 412.517C245.754 411.091 250.76 412.874 251.83 413.587C252.9 414.301 262.482 429.221 260.711 433.132C258.94 437.044 235.483 459.417 225.889 465.457C216.295 471.496 209.899 474.706 202.79 475.051C195.681 475.395 178.276 469.368 165.127 462.615C151.979 455.863 143.098 444.497 143.098 435.617C143.098 426.736 156.271 418.2 163.369 418.2" stroke="#263238" stroke-linecap="round" stroke-linejoin="round"/>
</g>
<path id="Vector_88" d="M120.38 399.676C120.38 399.676 136.37 401.103 143.48 398.618C151.514 396.081 159.702 394.06 167.994 392.567C170.835 392.222 176.161 400.033 179.064 401.816C181.966 403.6 182.606 408.913 182.262 411.054C181.917 413.194 180.835 414.252 177.342 414.953C173.848 415.654 165.62 413.181 160.294 414.953C154.968 416.724 148.916 421.349 143.947 422.062C138.978 422.776 129.015 420.992 129.015 420.992L110.897 420.291C110.897 420.291 113.271 403.588 120.38 399.676Z" fill="white" stroke="#263238" stroke-linecap="round" stroke-linejoin="round"/>
<g id="Vector_89">
<path d="M153.43 411.054C153.43 411.054 160.884 407.13 162.36 407.13C163.836 407.13 173.368 409.258 173.368 409.258C173.368 409.258 180.478 410.328 180.478 412.812" fill="white"/>
<path d="M153.43 411.054C153.43 411.054 160.884 407.13 162.36 407.13C163.836 407.13 173.368 409.258 173.368 409.258C173.368 409.258 180.478 410.328 180.478 412.812" stroke="#263238" stroke-linecap="round" stroke-linejoin="round"/>
</g>
<g id="Vector_90">
<path d="M155.915 402.517C155.915 402.517 162.667 400.057 164.439 400.389C166.21 400.722 174.746 403.231 177.969 406.072C179.668 407.474 181.112 409.159 182.237 411.054" fill="white"/>
<path d="M155.915 402.517C155.915 402.517 162.667 400.057 164.439 400.389C166.21 400.722 174.746 403.231 177.969 406.072C179.668 407.474 181.112 409.159 182.237 411.054" stroke="#263238" stroke-linecap="round" stroke-linejoin="round"/>
</g>
<g id="Vector_91">
<path d="M156.985 397.905C156.985 397.905 165.152 396.121 167.637 396.478C170.121 396.835 176.161 399.676 176.161 399.676" fill="white"/>
<path d="M156.985 397.905C156.985 397.905 165.152 396.121 167.637 396.478C170.121 396.835 176.161 399.676 176.161 399.676" stroke="#263238" stroke-linecap="round" stroke-linejoin="round"/>
</g>
<g id="Vector_92">
<path d="M125.349 333.945L96.9241 382.973C96.9241 382.973 101.844 387.598 102.976 388.668C104.107 389.738 113.627 394.707 113.627 394.707C113.627 394.707 96.9241 411.755 94.7962 417.093C93.7066 419.977 92.2735 422.719 90.5281 425.26L85.6081 425.974C85.6081 425.974 61.7584 417.093 52.8901 413.538C44.0218 409.984 40.0981 398.262 42.595 389.726C45.0919 381.189 74.575 326.479 74.575 326.479C74.575 326.479 92.3362 293.084 100.86 289.579C109.384 286.073 122.176 287.451 128.929 292.039C135.681 296.627 136.395 306.959 136.395 306.959" fill="#92E3A9"/>
<path d="M125.349 333.945L96.9241 382.973C96.9241 382.973 101.844 387.598 102.976 388.668C104.107 389.738 113.627 394.707 113.627 394.707C113.627 394.707 96.9241 411.755 94.7962 417.093C93.7066 419.977 92.2735 422.719 90.5281 425.26L85.6081 425.974C85.6081 425.974 61.7584 417.093 52.8901 413.538C44.0218 409.984 40.0981 398.262 42.595 389.725C45.0919 381.189 74.575 326.479 74.575 326.479C74.575 326.479 92.3362 293.084 100.86 289.579C109.384 286.073 122.176 287.451 128.929 292.039C135.681 296.627 136.395 306.959 136.395 306.959" stroke="#263238" stroke-linecap="round" stroke-linejoin="round"/>
</g>
<g id="Vector_93">
<path d="M78.7201 370.476C77.4937 370.005 76.2191 369.671 74.9194 369.48L78.7201 370.476Z" fill="white"/>
<path d="M78.7201 370.476C77.4937 370.005 76.2191 369.671 74.9194 369.48" stroke="#263238" stroke-linecap="round" stroke-linejoin="round"/>
</g>
<g id="Vector_94">
<path d="M95.5096 382.628C91.5168 378.364 86.8961 374.735 81.8074 371.866L95.5096 382.628Z" fill="white"/>
<path d="M95.5096 382.628C91.5168 378.364 86.8961 374.735 81.8074 371.866" stroke="#263238" stroke-linecap="round" stroke-linejoin="round"/>
</g>
<g id="Vector_95">
<path d="M69.4458 374.314C72.163 373.617 74.9749 373.363 77.7729 373.563L69.4458 374.314Z" fill="white"/>
<path d="M69.4458 374.314C72.163 373.617 74.9749 373.363 77.7729 373.563" stroke="#263238" stroke-linecap="round" stroke-linejoin="round"/>
</g>
<g id="Vector_96">
<path d="M63.1975 376.909C64.0505 376.36 64.9522 375.89 65.8912 375.507L63.1975 376.909Z" fill="white"/>
<path d="M63.1975 376.909C64.0505 376.36 64.9522 375.89 65.8912 375.507" stroke="#263238" stroke-linecap="round" stroke-linejoin="round"/>
</g>
<path id="Vector_97" d="M128.904 398.963C128.904 398.963 119.31 408.212 116.85 415.31C114.39 422.407 111.93 432.726 111.93 432.726C111.93 432.726 110.146 433.083 99.8514 430.586C89.5563 428.089 85.6326 425.974 85.6326 425.974C85.6326 425.974 91.3152 406.072 98.0679 399.32C104.821 392.567 106.247 390.796 106.247 390.796L128.904 398.963Z" fill="#92E3A9" stroke="#263238" stroke-linecap="round" stroke-linejoin="round"/>
<path id="Vector_98" d="M182.557 317.955C182.557 317.955 176.161 310.489 167.28 309.431C158.4 308.373 136.014 309.431 129.618 311.202C123.222 312.974 117.539 318.668 117.896 320.44C118.049 321.027 118.169 321.622 118.252 322.223L118.609 324.351C118.609 324.351 117.539 334.658 116.826 345.261C116.112 355.864 122.865 364.449 124.648 365.876C126.432 367.303 147.735 337.807 160.884 329.271C174.033 320.735 182.557 317.955 182.557 317.955Z" fill="#858585" stroke="#263238" stroke-linecap="round" stroke-linejoin="round"/>
<path id="Vector_99" d="M120.38 368.41C120.38 368.41 130.688 377.29 133.172 379.775C135.657 382.259 142.409 372.321 142.409 372.321C142.409 372.321 154.845 351.005 167.637 341.756C180.429 332.506 186.468 327.906 187.895 327.18C189.322 326.454 191.093 323.625 188.608 321.497C186.124 319.37 183.627 313.675 179.014 314.388C174.402 315.101 155.915 325.766 144.574 337.131C133.234 348.496 124.685 358.041 121.487 361.645C118.289 365.249 120.38 368.41 120.38 368.41Z" fill="#858585" stroke="#263238" stroke-linecap="round" stroke-linejoin="round"/>
<path id="Vector_100" d="M137.293 371.595C138.006 372.075 138.523 372.419 138.867 372.592C139.322 372.885 139.864 373.012 140.402 372.951C140.94 372.891 141.441 372.646 141.819 372.259" stroke="#263238" stroke-linecap="round" stroke-linejoin="round"/>
<path id="Vector_101" d="M132.84 368.447L135.46 370.304" stroke="#263238" stroke-linecap="round" stroke-linejoin="round"/>
<path id="Vector_102" d="M124.476 358.68C124.149 359.29 124.035 359.992 124.153 360.674C124.272 361.357 124.615 361.98 125.128 362.444C126.706 363.917 128.378 365.285 130.134 366.54" stroke="#263238" stroke-linecap="round" stroke-linejoin="round"/>
<path id="Vector_103" d="M131.671 350.833C131.585 351.524 131.692 352.226 131.981 352.86C132.27 353.494 132.729 354.036 133.307 354.424C135.275 355.568 145.091 364.572 146.235 364.572C147.379 364.572 148.855 363.096 148.855 363.096" stroke="#263238" stroke-linecap="round" stroke-linejoin="round"/>
<path id="Vector_104" d="M146.727 350.476C148.488 351.724 150.347 352.826 152.286 353.772C153.279 353.663 154.264 353.499 155.238 353.28" stroke="#263238" stroke-linecap="round" stroke-linejoin="round"/>
<path id="Vector_105" d="M139.359 342.641C139.405 343.903 139.868 345.114 140.675 346.085C141.962 347.233 143.34 348.274 144.796 349.197" stroke="#263238" stroke-linecap="round" stroke-linejoin="round"/>
<path id="Vector_106" d="M157.169 344.646L159.002 345.876" stroke="#263238" stroke-linecap="round" stroke-linejoin="round"/>
<path id="Vector_107" d="M146.727 335.605C146.727 335.605 149.015 338.225 150.318 339.541C151.007 340.218 153.32 341.915 155.386 343.391" stroke="#263238" stroke-linecap="round" stroke-linejoin="round"/>
</g>
<g id="freepik--Plants--inject-151">
<path id="Vector_108" d="M371.46 518.691C368.828 519.417 367.192 524.054 367.094 526.489C367.094 526.698 367.315 530.007 367.364 529.995C367.413 529.982 371.817 528.211 373.28 526.661C374.51 525.333 375.74 523.304 375.433 521.397C375.372 520.948 375.217 520.517 374.978 520.131C374.74 519.746 374.423 519.415 374.049 519.16C373.674 518.905 373.25 518.731 372.804 518.65C372.358 518.57 371.9 518.583 371.46 518.691Z" fill="#DBDBDB"/>
<path id="Vector_109" d="M329.148 546.624C329.148 546.624 331.891 542.676 332.248 540.573C332.567 538.777 332.457 536.403 331.141 535.001C330.844 534.659 330.478 534.384 330.068 534.193C329.657 534.003 329.211 533.9 328.759 533.893C328.306 533.886 327.857 533.975 327.441 534.153C327.025 534.331 326.651 534.595 326.344 534.927C324.548 536.981 325.741 541.766 326.996 543.845C327.106 544.029 329.123 546.661 329.148 546.624Z" fill="#DBDBDB"/>
<path id="Vector_110" d="M378.213 581.212C379.603 580.043 381.054 578.161 380.956 576.292C380.95 575.832 380.846 575.38 380.651 574.964C380.456 574.548 380.174 574.178 379.825 573.88C379.476 573.582 379.066 573.362 378.625 573.235C378.184 573.108 377.72 573.076 377.266 573.143C374.56 573.561 372.407 577.977 372.026 580.388C372.026 580.548 371.915 582.393 371.89 583.34C371.731 582.577 371.571 581.815 371.423 581.015C371.202 579.871 371.005 578.653 370.796 577.46C370.722 576.845 370.636 576.23 370.562 575.591C370.488 574.951 370.439 574.361 370.378 573.709C370.316 572.786 370.291 571.815 370.267 570.855C372.387 570.65 374.462 570.114 376.417 569.269C377.967 568.321 379.689 566.673 379.885 564.754C379.95 564.302 379.918 563.842 379.791 563.403C379.665 562.964 379.447 562.557 379.152 562.208C378.857 561.86 378.491 561.577 378.079 561.38C377.667 561.183 377.218 561.075 376.761 561.064C374.031 561.064 371.239 565.111 370.488 567.436C370.488 567.51 370.353 568.014 370.242 568.666C370.242 567.731 370.242 566.784 370.242 565.837C370.341 563.143 370.525 560.388 370.697 557.633C370.697 557.067 370.759 556.489 370.796 555.911C371.792 555.788 375.544 555.259 377.118 554.299C378.692 553.34 380.39 551.704 380.587 549.798C380.651 549.346 380.619 548.887 380.493 548.449C380.368 548.011 380.151 547.604 379.857 547.256C379.563 546.907 379.199 546.625 378.788 546.427C378.378 546.229 377.93 546.12 377.475 546.108C374.744 546.108 371.94 550.154 371.189 552.479C371.189 552.565 371.042 553.168 370.906 553.844C370.98 552.344 371.029 550.855 371.042 549.367C371.067 546.822 370.924 544.279 370.611 541.753C370.968 541.753 375.384 541.175 377.143 540.105C378.692 539.158 380.414 537.522 380.599 535.603C380.667 535.152 380.638 534.69 380.514 534.251C380.39 533.811 380.173 533.403 379.879 533.054C379.584 532.704 379.218 532.422 378.806 532.225C378.393 532.029 377.944 531.922 377.487 531.913C374.756 531.913 371.952 535.96 371.214 538.273C371.152 538.445 370.722 540.634 370.587 541.421C370.593 541.393 370.593 541.364 370.587 541.335C370.221 538.861 369.636 536.424 368.84 534.054C368.137 531.935 367.316 529.857 366.38 527.83C365.531 525.948 364.633 524.275 363.822 522.799C363.379 522.012 362.961 521.286 362.592 520.622H362.653C362.653 520.622 362.296 517.338 362.247 517.129C361.669 514.767 359.172 510.524 356.442 510.327C355.989 510.305 355.537 510.379 355.115 510.544C354.693 510.709 354.311 510.961 353.993 511.284C353.675 511.606 353.428 511.992 353.269 512.417C353.111 512.841 353.043 513.294 353.071 513.746C353.071 515.665 354.72 517.436 356.196 518.494C357.672 519.552 361.497 520.388 362.432 520.573C362.838 521.274 363.256 522.024 363.662 522.873C364.437 524.361 365.298 526.046 366.122 527.941C366.343 528.445 366.552 528.998 366.774 529.54C366.22 528.715 365.445 527.596 365.359 527.498C363.76 525.665 359.59 523.057 357.081 524.128C356.67 524.317 356.303 524.591 356.004 524.932C355.706 525.273 355.483 525.673 355.349 526.105C355.216 526.538 355.175 526.995 355.23 527.444C355.284 527.894 355.433 528.327 355.667 528.715C356.602 530.401 358.816 531.237 360.587 531.495C362.358 531.754 366.282 530.696 367.118 530.462C367.573 531.692 368.028 532.922 368.348 534.152C369.096 536.518 369.627 538.947 369.935 541.409H369.787C369.369 540.597 368.446 538.949 368.36 538.765C366.97 536.76 363.108 533.709 360.501 534.496C360.07 534.64 359.674 534.873 359.339 535.179C359.004 535.486 358.737 535.86 358.556 536.276C358.375 536.693 358.284 537.143 358.288 537.597C358.293 538.051 358.393 538.499 358.582 538.912C359.332 540.683 361.448 541.753 363.207 542.209C365.248 542.725 369.799 541.901 369.972 541.876C370.21 544.329 370.292 546.794 370.218 549.256C370.218 551.077 370.045 552.946 369.898 554.767C369.627 554.189 368.422 551.962 368.323 551.803C366.934 549.81 363.071 546.747 360.464 547.547C360.033 547.689 359.638 547.92 359.303 548.226C358.968 548.531 358.701 548.904 358.52 549.319C358.339 549.735 358.247 550.184 358.252 550.637C358.256 551.091 358.356 551.538 358.545 551.95C359.283 553.734 361.411 554.804 363.17 555.247C365.15 555.763 369.517 554.988 369.886 554.927C369.886 555.763 369.763 556.6 369.689 557.448C369.455 560.191 369.209 562.934 369.049 565.665C369.049 566.599 368.975 567.534 368.951 568.469C368.508 567.608 367.721 566.009 367.585 565.935C366.208 563.93 362.346 560.88 359.726 561.667C359.296 561.812 358.901 562.046 358.568 562.353C358.234 562.66 357.969 563.034 357.789 563.45C357.609 563.867 357.519 564.316 357.524 564.77C357.529 565.223 357.63 565.671 357.819 566.083C358.557 567.854 360.685 568.924 362.444 569.379C364.203 569.834 367.893 569.269 368.938 569.096C368.938 570.646 368.938 572.184 368.938 573.697C368.938 574.348 369 575.025 369.074 575.652C369.148 576.28 369.221 576.882 369.283 577.522C369.467 578.752 369.64 579.982 369.836 581.212C369.935 581.815 370.045 582.368 370.144 582.958C369.824 582.011 369.307 580.498 369.234 580.412C368.164 578.223 364.818 574.619 362.112 575C361.665 575.078 361.24 575.248 360.863 575.501C360.487 575.754 360.168 576.082 359.926 576.466C359.685 576.85 359.527 577.281 359.463 577.729C359.399 578.178 359.43 578.636 359.554 579.072C359.612 579.305 359.694 579.532 359.8 579.748C359.597 581.396 359.722 583.068 360.169 584.668C361.817 584.951 363.465 585.222 365.089 585.48C365.503 584.872 365.849 584.22 366.122 583.537C367.491 583.67 368.867 583.719 370.242 583.684C370.414 584.582 370.574 585.455 370.747 586.304L372.419 586.525C372.223 585.64 372.013 584.717 371.817 583.77C372.567 583.672 376.687 582.503 378.213 581.212Z" fill="#DBDBDB"/>
<path id="Vector_111" d="M358.2 584.25L356.97 582.823C356.54 582.356 356.183 581.851 355.74 581.347C355.162 580.609 354.609 579.822 354.068 579.035C355.717 577.689 357.149 576.095 358.311 574.312C359.086 572.663 359.615 570.351 358.717 568.641C358.52 568.233 358.239 567.872 357.893 567.58C357.547 567.288 357.143 567.072 356.707 566.947C356.272 566.822 355.816 566.789 355.367 566.852C354.919 566.915 354.488 567.072 354.105 567.313C351.829 568.813 351.718 573.733 352.383 576.083C352.383 576.157 352.592 576.649 352.825 577.214C352.309 576.427 351.792 575.64 351.3 574.828C349.886 572.528 348.52 570.13 347.155 567.743L346.282 566.255C347.044 565.591 349.886 563.082 350.673 561.409C351.46 559.736 351.977 557.448 351.079 555.739C350.88 555.33 350.598 554.969 350.251 554.677C349.904 554.385 349.499 554.169 349.062 554.044C348.626 553.918 348.169 553.886 347.719 553.949C347.27 554.012 346.839 554.169 346.454 554.41C344.178 555.911 344.08 560.831 344.732 563.18C344.732 563.266 344.99 563.844 345.249 564.484C344.486 563.192 343.711 561.913 342.899 560.671C341.512 558.525 339.988 556.471 338.336 554.521C338.607 554.287 342.026 551.409 342.875 549.601C343.65 547.953 344.166 545.64 343.268 543.931C343.073 543.521 342.793 543.158 342.447 542.865C342.1 542.572 341.696 542.356 341.26 542.23C340.825 542.105 340.367 542.073 339.918 542.137C339.469 542.201 339.039 542.36 338.656 542.602C336.38 544.103 336.27 549.023 336.934 551.372C336.934 551.544 337.832 553.611 338.164 554.336V554.275C336.497 552.412 334.665 550.703 332.69 549.17C330.936 547.787 329.1 546.509 327.192 545.345C325.433 544.25 323.76 543.34 322.272 542.565C321.473 542.147 320.722 541.778 320.021 541.446C320.021 541.446 317.918 538.9 317.758 538.765C315.975 537.104 311.547 534.939 309.148 536.305C308.96 536.403 308.786 536.527 308.631 536.674C308.734 536.516 308.824 536.352 308.902 536.182C309.071 535.824 309.163 535.435 309.172 535.04C309.182 534.645 309.108 534.252 308.956 533.887C308.805 533.522 308.578 533.192 308.291 532.92C308.004 532.648 307.663 532.439 307.291 532.307C305.015 531.581 301.596 534.189 300.354 535.923C300.28 536.034 299.456 537.51 299.124 538.211H299.001C299.304 536.068 299.798 533.956 300.477 531.901C300.846 530.757 301.251 529.699 301.707 528.666C303.543 529.287 305.463 529.623 307.401 529.663C308.256 529.611 309.089 529.374 309.843 528.968C310.597 528.563 311.254 527.998 311.768 527.313C311.976 526.977 312.112 526.6 312.166 526.208C312.22 525.816 312.191 525.417 312.08 525.036C311.97 524.656 311.782 524.303 311.526 524C311.271 523.698 310.956 523.452 310.599 523.279C308.422 522.295 304.732 524.509 303.318 526.108C303.232 526.194 302.543 527.153 302.088 527.867C302.285 527.399 302.481 526.92 302.678 526.489C303.416 524.841 304.191 523.377 304.892 522.086C305.286 521.36 305.667 520.708 306.036 520.093C307.94 519.804 309.787 519.219 311.51 518.359C312.247 517.923 312.879 517.329 313.362 516.622C313.844 515.914 314.165 515.109 314.302 514.263C314.333 513.869 314.281 513.472 314.149 513.099C314.016 512.726 313.807 512.385 313.535 512.099C313.262 511.812 312.932 511.586 312.566 511.436C312.2 511.285 311.807 511.213 311.411 511.225C309.025 511.36 306.786 515.026 306.245 517.092C306.245 517.264 305.802 520.142 305.839 520.13C305.483 520.708 305.101 521.36 304.708 522.024C303.982 523.254 303.17 524.743 302.395 526.391C301.533 528.143 300.777 529.947 300.132 531.79C299.402 533.85 298.855 535.97 298.496 538.125V538.199C298.386 537.51 298.041 535.591 297.992 535.444C297.377 533.402 294.978 529.822 292.605 529.786C292.208 529.788 291.817 529.874 291.456 530.038C291.095 530.202 290.773 530.441 290.51 530.738C290.248 531.035 290.051 531.385 289.933 531.763C289.815 532.141 289.778 532.541 289.825 532.934C289.996 533.776 290.35 534.569 290.862 535.258C291.375 535.946 292.033 536.514 292.789 536.92C294.593 537.71 296.504 538.228 298.459 538.457C298.154 540.662 297.994 542.885 297.98 545.111C297.98 546.341 297.98 547.707 297.98 549.023C297.869 548.42 297.758 547.891 297.746 547.793C297.119 545.751 294.732 542.184 292.346 542.135C291.95 542.139 291.558 542.226 291.198 542.392C290.838 542.558 290.516 542.798 290.255 543.096C289.994 543.394 289.799 543.745 289.682 544.124C289.565 544.503 289.53 544.902 289.579 545.296C289.752 546.135 290.105 546.926 290.615 547.614C291.125 548.302 291.779 548.871 292.531 549.281C294.28 550.06 296.138 550.566 298.041 550.782C298.041 551.286 298.041 551.79 298.041 552.295C298.152 554.755 298.275 557.104 298.324 559.465C298.324 560.29 298.324 561.114 298.324 561.925C298.238 561.397 298.152 560.954 298.127 560.88C297.512 558.838 295.114 555.271 292.728 555.222C292.332 555.228 291.941 555.317 291.582 555.483C291.222 555.649 290.902 555.889 290.641 556.187C290.38 556.485 290.185 556.835 290.067 557.213C289.95 557.591 289.914 557.99 289.96 558.383C290.133 559.224 290.488 560.016 291 560.705C291.512 561.393 292.169 561.961 292.924 562.368C294.619 563.138 296.425 563.636 298.275 563.844C298.275 564.693 298.201 565.529 298.127 566.304C298.127 566.858 298.041 567.399 297.955 567.952C297.869 568.506 297.795 569.035 297.709 569.576V569.748L298.939 570.056C298.939 569.945 298.939 569.847 298.939 569.748C299.013 569.207 299.074 568.654 299.148 568.112C299.222 567.571 299.247 566.981 299.296 566.415C299.382 565.087 299.419 563.734 299.406 562.381C301.268 562.785 303.18 562.902 305.077 562.725C305.924 562.582 306.729 562.256 307.436 561.77C308.144 561.283 308.736 560.648 309.173 559.908C309.358 559.552 309.464 559.16 309.485 558.758C309.506 558.357 309.441 557.956 309.294 557.582C309.147 557.208 308.922 556.87 308.634 556.59C308.346 556.31 308.001 556.096 307.623 555.96C305.347 555.222 301.928 557.842 300.686 559.564C300.612 559.675 299.862 561.015 299.456 561.766C299.456 560.954 299.456 560.13 299.456 559.306C299.357 556.932 299.185 554.521 299.013 552.122C299.013 551.384 298.927 550.646 298.878 549.921C300.804 550.335 302.781 550.463 304.745 550.302C305.589 550.156 306.391 549.829 307.096 549.342C307.801 548.856 308.392 548.222 308.828 547.485C309.002 547.128 309.097 546.739 309.11 546.342C309.122 545.945 309.05 545.551 308.899 545.184C308.748 544.817 308.521 544.486 308.234 544.213C307.946 543.939 307.604 543.73 307.229 543.598C304.954 542.873 301.534 545.48 300.292 547.215C300.206 547.338 299.062 549.281 298.865 549.785C298.779 548.162 298.693 546.55 298.681 544.951C298.643 542.802 298.75 540.653 299.001 538.519C299.148 538.519 303.109 539.33 304.892 538.9C306.099 538.642 307.219 538.074 308.139 537.252C307.807 537.817 307.645 538.466 307.674 539.12C307.702 539.775 307.919 540.408 308.299 540.942C309.406 542.516 311.706 543.106 313.527 543.18C315.347 543.254 318.988 541.84 319.886 541.483C320.599 541.84 321.362 542.233 322.211 542.713C323.674 543.537 325.323 544.459 327.045 545.603C327.5 545.899 327.992 546.243 328.459 546.563C327.549 546.181 326.294 545.689 326.159 545.653C323.822 545.001 318.89 545.124 317.389 547.399C317.151 547.785 316.997 548.216 316.937 548.666C316.877 549.115 316.912 549.572 317.039 550.006C317.167 550.441 317.384 550.845 317.678 551.19C317.971 551.535 318.334 551.815 318.742 552.012C320.452 552.91 322.764 552.368 324.412 551.593C326.061 550.819 328.73 547.793 329.332 547.129C330.378 547.867 331.423 548.641 332.469 549.515C334.398 551.071 336.177 552.805 337.782 554.693L337.684 554.804C336.897 554.361 335.224 553.438 335.04 553.389C332.776 552.479 327.881 552.061 326.134 554.164C325.855 554.521 325.654 554.934 325.545 555.374C325.435 555.813 325.419 556.272 325.498 556.718C325.577 557.165 325.749 557.59 326.003 557.965C326.256 558.341 326.586 558.66 326.971 558.9C328.57 559.97 330.931 559.687 332.653 559.096C334.634 558.408 337.967 555.21 338.102 555.087C339.649 557.001 341.074 559.009 342.37 561.101C343.342 562.651 344.252 564.262 345.15 565.874C344.597 565.542 342.37 564.349 342.198 564.275C339.935 563.377 335.027 562.959 333.293 565.062C333.012 565.418 332.81 565.829 332.699 566.268C332.589 566.707 332.572 567.165 332.651 567.611C332.73 568.057 332.903 568.482 333.158 568.856C333.412 569.231 333.744 569.548 334.129 569.785C335.728 570.868 338.078 570.585 339.8 569.994C341.743 569.318 344.953 566.304 345.224 566.009L346.454 568.223C347.77 570.683 349.086 573.069 350.451 575.431C350.931 576.243 351.423 577.03 351.915 577.829C351.079 577.35 349.529 576.513 349.381 576.464C347.118 575.554 342.223 575.136 340.476 577.239C340.094 577.704 339.857 578.273 339.796 578.872C339.734 579.472 339.851 580.076 340.132 580.609C342.42 581.126 344.732 581.642 347.069 582.134C348.97 581.136 350.715 579.863 352.247 578.358C353.084 579.662 353.932 580.941 354.83 582.171C355.236 582.688 355.617 583.241 356.06 583.721L356.269 583.955L358.41 584.348L358.2 584.25Z" fill="#DBDBDB"/>
<path id="Vector_112" d="M294.573 520.536C294.521 521.404 294.66 522.272 294.981 523.08C295.302 523.887 295.797 524.615 296.43 525.21C297.66 526.588 301.547 528.211 301.547 528.211C301.547 528.211 301.842 525.333 301.842 525.149C301.78 523.021 300.415 518.937 298.152 518.273C297.767 518.161 297.364 518.133 296.967 518.189C296.571 518.245 296.191 518.385 295.853 518.599C295.515 518.813 295.226 519.096 295.005 519.43C294.784 519.764 294.637 520.141 294.573 520.536Z" fill="#DBDBDB"/>
<path id="Vector_113" d="M294.364 567.03C294.338 566.824 294.288 566.622 294.216 566.427C294.105 566.047 293.915 565.694 293.658 565.393C293.401 565.092 293.083 564.848 292.725 564.678C292.367 564.509 291.977 564.417 291.581 564.409C291.185 564.401 290.792 564.476 290.428 564.631C289.415 565.224 288.67 566.184 288.349 567.313C290.809 567.895 293.269 568.51 295.729 569.158C295.366 568.393 294.907 567.678 294.364 567.03Z" fill="#DBDBDB"/>
<path id="Vector_114" d="M305.31 567.571C303.625 567.301 301.62 568.801 300.28 570.376L307.02 572.171C307.228 571.861 307.385 571.521 307.488 571.163C307.601 570.784 307.634 570.385 307.584 569.992C307.534 569.599 307.402 569.222 307.197 568.883C306.992 568.545 306.718 568.253 306.393 568.027C306.068 567.801 305.699 567.646 305.31 567.571Z" fill="#DBDBDB"/>
<path id="Vector_115" d="M282.543 565.345L282.998 566.095L284.499 566.439C283.921 565.468 283.269 564.496 282.679 563.537C284.455 562.848 286.114 561.89 287.599 560.695C288.222 560.106 288.711 559.388 289.032 558.592C289.352 557.796 289.497 556.94 289.456 556.083C289.4 555.691 289.263 555.315 289.053 554.979C288.843 554.644 288.565 554.356 288.237 554.135C287.909 553.913 287.538 553.763 287.149 553.694C286.759 553.625 286.359 553.638 285.975 553.734C283.675 554.385 282.285 558.444 282.186 560.572C282.186 560.708 282.297 562.245 282.371 563.032C281.916 562.356 281.461 561.679 280.981 561.015C279.579 559.084 278.103 557.165 276.651 555.259L275.311 553.5C277.152 552.79 278.873 551.803 280.415 550.572C281.044 549.989 281.537 549.275 281.858 548.48C282.179 547.685 282.32 546.828 282.273 545.972C282.219 545.58 282.083 545.203 281.874 544.866C281.664 544.529 281.386 544.241 281.058 544.019C280.729 543.797 280.357 543.647 279.967 543.579C279.576 543.511 279.176 543.526 278.792 543.623C276.492 544.263 275.102 548.334 275.003 550.462C275.003 550.622 275.163 552.823 275.237 553.389C274.265 552.098 273.306 550.794 272.408 549.478C271.199 547.699 270.102 545.846 269.124 543.93C270.973 543.21 272.706 542.219 274.265 540.991C274.889 540.404 275.379 539.689 275.699 538.895C276.02 538.1 276.164 537.246 276.123 536.391C276.067 535.997 275.93 535.62 275.719 535.284C275.509 534.947 275.229 534.658 274.9 534.437C274.57 534.215 274.198 534.066 273.807 533.997C273.416 533.929 273.014 533.944 272.629 534.041C270.342 534.681 268.939 538.752 268.853 540.88C268.853 541.015 268.964 542.7 269.05 543.5H268.915C267.995 541.571 267.242 539.567 266.664 537.51C266.344 536.366 266.098 535.247 265.877 534.164C267.75 533.663 269.537 532.884 271.178 531.852C271.864 531.336 272.429 530.677 272.835 529.921C273.24 529.165 273.477 528.33 273.527 527.473C273.514 527.077 273.417 526.689 273.244 526.332C273.072 525.976 272.826 525.659 272.524 525.403C272.221 525.147 271.869 524.957 271.489 524.846C271.109 524.734 270.71 524.703 270.317 524.755C269.448 524.971 268.676 525.473 268.128 526.182C267.647 525.843 267.066 525.678 266.479 525.714C265.884 525.774 265.315 525.99 264.831 526.341C264.831 525.751 264.757 525.111 264.733 524.644C266.157 523.351 267.373 521.845 268.337 520.179C268.702 519.413 268.898 518.576 268.911 517.727C268.923 516.878 268.753 516.036 268.41 515.259C268.216 514.915 267.952 514.615 267.635 514.379C267.317 514.142 266.955 513.975 266.569 513.887C266.184 513.799 265.784 513.792 265.396 513.868C265.007 513.943 264.639 514.099 264.315 514.324C262.408 515.763 262.556 520.056 263.245 522.073C263.245 522.246 264.561 524.865 264.585 524.829C264.585 525.357 264.585 525.936 264.659 526.526C263.652 527.318 262.815 528.305 262.199 529.429C260.661 528.199 258.632 527.116 257.095 527.584C256.72 527.712 256.377 527.918 256.087 528.188C255.798 528.457 255.568 528.785 255.412 529.149C255.257 529.513 255.18 529.905 255.186 530.301C255.191 530.697 255.28 531.087 255.446 531.446C255.87 532.193 256.454 532.838 257.155 533.333C257.857 533.828 258.659 534.163 259.505 534.312C259.949 534.412 260.403 534.461 260.858 534.459C260.858 534.607 260.858 534.718 260.858 534.705C260.502 535.284 260.133 535.935 259.727 536.587C259.001 537.817 258.189 539.318 257.414 540.954C256.558 542.708 255.807 544.511 255.163 546.354C254.429 548.412 253.882 550.532 253.527 552.688C253.522 552.712 253.522 552.738 253.527 552.762C253.429 552.073 253.072 550.154 253.023 550.007C252.408 547.965 250.022 544.398 247.636 544.349C247.239 544.353 246.847 544.44 246.486 544.606C246.125 544.771 245.803 545.011 245.541 545.309C245.279 545.607 245.082 545.957 244.964 546.337C244.846 546.716 244.809 547.115 244.856 547.51C245.033 548.349 245.39 549.139 245.902 549.827C246.413 550.515 247.068 551.084 247.82 551.495C249.626 552.289 251.542 552.803 253.503 553.02C253.186 555.224 253.026 557.448 253.023 559.674C253.023 560.609 253.023 561.544 253.023 562.491H253.749C253.749 561.544 253.675 560.609 253.663 559.674C253.632 557.521 253.739 555.369 253.983 553.229C255.916 553.652 257.902 553.785 259.874 553.623C260.72 553.478 261.525 553.151 262.232 552.664C262.939 552.178 263.532 551.544 263.97 550.806C264.141 550.448 264.235 550.058 264.245 549.661C264.256 549.265 264.183 548.87 264.031 548.504C263.879 548.137 263.651 547.807 263.363 547.534C263.075 547.261 262.733 547.051 262.359 546.919C260.083 546.194 256.676 548.801 255.434 550.536C255.348 550.646 254.524 552.122 254.204 552.836H254.069C254.376 550.692 254.874 548.581 255.557 546.526C255.914 545.394 256.32 544.324 256.787 543.291C256.984 543.352 257.377 543.475 257.869 543.598C257.971 543.885 258.116 544.155 258.3 544.398C258.909 545.003 259.643 545.467 260.45 545.758C261.258 546.049 262.119 546.16 262.974 546.083C264.917 545.75 266.799 545.128 268.558 544.238C269.516 546.243 270.605 548.182 271.818 550.044C272.519 551.138 273.269 552.208 274.019 553.278L273.171 552.405C271.522 551.052 267.562 549.379 265.545 550.671C265.217 550.893 264.939 551.181 264.731 551.518C264.522 551.854 264.387 552.231 264.333 552.623C264.28 553.015 264.31 553.415 264.421 553.795C264.532 554.174 264.722 554.527 264.979 554.828C265.586 555.432 266.318 555.895 267.123 556.186C267.929 556.477 268.788 556.589 269.64 556.513C271.531 556.208 273.362 555.606 275.065 554.73L275.95 555.96C277.377 557.903 278.804 559.834 280.145 561.778C280.612 562.467 281.055 563.155 281.498 563.844L280.76 563.094C279.111 561.741 275.151 560.068 273.134 561.347C272.682 561.628 272.325 562.036 272.106 562.52C271.887 563.003 271.816 563.542 271.904 564.066C275.02 564.59 278.209 565.214 281.473 565.935L282.543 565.345ZM257.746 540.966C258.484 539.318 259.259 537.854 259.96 536.563C260.366 535.837 260.748 535.185 261.104 534.582L262.457 534.3C264.032 534.164 265.508 533.894 265.508 533.894C265.455 533.748 265.389 533.609 265.311 533.475L265.434 533.414C265.648 534.822 265.935 536.218 266.295 537.596L266.492 538.309C266.266 538.077 265.999 537.89 265.705 537.756C263.761 536.883 260.6 538.568 258.94 540.068C258.475 540.357 258.117 540.789 257.919 541.298L257.193 542.319C257.353 541.889 257.55 541.409 257.746 540.966ZM266.713 542.024C266.774 541.949 266.832 541.871 266.885 541.79C267.058 541.477 267.175 541.135 267.23 540.782C267.574 541.778 267.968 542.787 268.46 543.783V543.857C268.14 543.438 267.131 542.43 266.713 542.024Z" fill="#DBDBDB"/>
<path id="Vector_116" d="M36.8999 521.791C37.9249 524.136 38.9786 526.387 40.061 528.543C41.6846 528.42 43.2467 528.125 43.2467 528.125C43.2467 528.125 41.9183 525.567 41.8076 525.419C40.5643 523.753 38.8571 522.491 36.8999 521.791Z" fill="#DBDBDB"/>
<path id="Vector_117" d="M72.3484 514.767C72.2951 515.622 72.428 516.478 72.7381 517.277C73.0482 518.075 73.5279 518.797 74.1442 519.392C75.3742 520.77 79.2733 522.393 79.2733 522.393C79.2733 522.393 79.5685 519.515 79.5685 519.331C79.5685 517.203 78.1417 513.181 75.8785 512.455C75.4936 512.35 75.0908 512.327 74.6967 512.39C74.3026 512.452 73.9262 512.597 73.5924 512.816C73.2587 513.034 72.9752 513.321 72.7607 513.658C72.5462 513.994 72.4057 514.372 72.3484 514.767Z" fill="#DBDBDB"/>
<path id="Vector_118" d="M81.635 568.801C82.45 568.532 83.196 568.087 83.8207 567.498C84.4454 566.91 84.9337 566.191 85.2512 565.394C85.367 565.015 85.4015 564.616 85.3524 564.222C85.3032 563.829 85.1716 563.45 84.9661 563.111C84.7606 562.772 84.4859 562.48 84.1598 562.255C83.8338 562.029 83.4638 561.875 83.0741 561.802C80.7248 561.433 77.7359 564.533 76.7765 566.427C76.7765 566.501 76.5428 567.018 76.3337 567.583C77.3915 568.162 78.4616 568.703 79.5563 569.232C80.2653 569.181 80.9644 569.036 81.635 568.801Z" fill="#DBDBDB"/>
<path id="Vector_119" d="M44.2799 536.058L44.0954 535.935C44.6366 536.833 45.1778 537.731 45.7313 538.605L46.334 538.322C47.2935 540.328 48.3866 542.267 49.6058 544.127C49.9379 544.644 50.2946 545.136 50.639 545.652C52.7074 548.364 54.9378 550.947 57.3179 553.389C56.3585 552.098 55.3868 550.818 54.4028 549.539L53.0744 547.78C54.9159 547.08 56.6409 546.106 58.1912 544.89C58.815 544.3 59.3039 543.583 59.6245 542.787C59.945 541.991 60.0897 541.135 60.0485 540.277C59.9977 539.884 59.8643 539.505 59.657 539.167C59.4497 538.829 59.1733 538.538 58.8458 538.314C58.5183 538.09 58.1472 537.937 57.7567 537.866C57.3662 537.796 56.9652 537.808 56.5799 537.903C54.2798 538.543 52.8899 542.614 52.7915 544.742C52.7915 544.902 52.9514 547.104 53.0252 547.67C52.0412 546.378 51.0941 545.074 50.1962 543.758C48.9826 541.982 47.8855 540.129 46.9121 538.211C47.0474 538.149 50.7989 536.612 52.0412 535.271C52.67 534.688 53.1625 533.974 53.4835 533.179C53.8046 532.383 53.9463 531.527 53.8985 530.671C53.8446 530.28 53.7089 529.904 53.5003 529.568C53.2917 529.233 53.0148 528.945 52.6877 528.723C52.3606 528.502 51.9905 528.352 51.6015 528.282C51.2126 528.213 50.8134 528.227 50.4299 528.322C48.1298 528.961 46.7399 533.033 46.6415 535.161C46.6415 535.296 46.7645 536.981 46.8383 537.78H46.7153C45.7831 535.823 45.0297 533.785 44.4644 531.692C44.1446 530.548 43.8863 529.429 43.6772 528.346C45.547 527.847 47.3302 527.068 48.9662 526.034C49.6537 525.52 50.2203 524.861 50.6262 524.105C51.0321 523.348 51.2673 522.512 51.3155 521.655C51.3034 521.26 51.2086 520.871 51.0371 520.515C50.8657 520.159 50.6214 519.842 50.32 519.586C50.0187 519.33 49.6669 519.14 49.2876 519.028C48.9082 518.916 48.5096 518.885 48.1175 518.937C45.7682 519.33 43.9109 523.217 43.6034 525.321C43.6034 525.444 43.6034 526.624 43.5173 527.485C43.4312 526.993 43.3205 526.489 43.2467 526.009C42.9515 524.226 42.7916 522.578 42.6686 521.089C42.5948 520.253 42.5579 519.503 42.521 518.802C43.9434 517.498 45.1623 515.989 46.1372 514.324C46.5018 513.558 46.6971 512.721 46.7098 511.872C46.7226 511.023 46.5524 510.182 46.211 509.404C46.0189 509.058 45.7561 508.755 45.4396 508.517C45.1231 508.278 44.76 508.109 44.3738 508.019C43.9877 507.93 43.587 507.923 43.1979 507.998C42.8088 508.074 42.4399 508.23 42.1151 508.457C40.1963 509.896 40.3562 514.189 41.045 516.206C41.045 516.378 42.3488 518.998 42.3857 518.961C42.3857 519.638 42.3857 520.364 42.4718 521.151C42.5702 522.627 42.6932 524.275 42.9515 526.071C43.209 528.005 43.5787 529.923 44.0585 531.815C44.5779 533.926 45.2902 535.984 46.1864 537.965V538.039C45.7682 537.571 44.4152 536.157 44.2799 536.058Z" fill="#DBDBDB"/>
<path id="Vector_120" d="M63.7386 547.977C61.4508 548.617 60.0486 552.676 59.9502 554.804C59.9502 554.89 59.9502 555.419 60.0363 556.034C60.5037 556.464 60.9834 556.907 61.4631 557.325C62.8822 556.736 64.2016 555.931 65.3745 554.939C65.9973 554.351 66.4857 553.636 66.8063 552.842C67.1269 552.048 67.272 551.194 67.2318 550.339C67.1781 549.945 67.0418 549.566 66.8318 549.228C66.6218 548.89 66.3428 548.6 66.0131 548.377C65.6835 548.154 65.3105 548.003 64.9185 547.935C64.5266 547.866 64.1245 547.88 63.7386 547.977Z" fill="#DBDBDB"/>
<path id="Vector_121" d="M74.464 566.317C74.1191 564.476 73.32 562.751 72.1393 561.298C72.1076 561.093 72.0582 560.892 71.9917 560.695C71.8793 560.315 71.6878 559.962 71.4296 559.661C71.1714 559.359 70.8525 559.116 70.4936 558.946C70.1347 558.777 69.7441 558.685 69.3473 558.677C68.9505 558.669 68.5564 558.745 68.191 558.9C67.2915 559.412 66.6094 560.234 66.2722 561.212C68.8923 563.165 71.6324 564.952 74.4763 566.563C74.4679 566.481 74.4638 566.399 74.464 566.317Z" fill="#DBDBDB"/>
<path id="Vector_122" d="M75.8048 562.11C75.731 562.651 75.6449 563.192 75.5711 563.734C75.3743 564.754 75.1898 565.812 74.9807 566.809L76.2107 567.448L76.2845 567.079C76.4813 566.046 76.6412 565.013 76.8257 563.906C76.8257 563.365 76.961 562.811 77.0348 562.27C77.1086 561.729 77.1209 561.138 77.1824 560.572C77.2685 559.244 77.2931 557.891 77.2931 556.538C79.1543 556.943 81.0669 557.06 82.9634 556.882C83.8091 556.741 84.6133 556.416 85.319 555.929C86.0248 555.442 86.6147 554.806 87.047 554.066C87.2202 553.71 87.316 553.321 87.3281 552.925C87.3402 552.529 87.2684 552.136 87.1173 551.77C86.9662 551.404 86.7394 551.074 86.4517 550.802C86.164 550.53 85.8219 550.322 85.448 550.191C83.1725 549.453 79.7531 552.073 78.5108 553.795C78.437 553.906 77.6867 555.247 77.2808 555.997C77.2808 555.185 77.2808 554.361 77.2808 553.537C77.1701 551.163 76.9979 548.752 76.838 546.354C76.838 545.616 76.7396 544.878 76.7027 544.152C78.6283 544.572 80.6061 544.701 82.5698 544.533C83.4127 544.384 84.2137 544.056 84.9183 543.569C85.6229 543.083 86.2147 542.452 86.6534 541.717C86.8244 541.358 86.9182 540.968 86.9286 540.572C86.939 540.175 86.8659 539.781 86.7139 539.414C86.5619 539.048 86.3346 538.717 86.0465 538.444C85.7585 538.171 85.4163 537.962 85.0421 537.83C82.7789 537.104 79.3595 539.712 78.1172 541.446C78.0188 541.569 76.8872 543.512 76.6904 544.017C76.592 542.393 76.5182 540.782 76.4936 539.195C76.4621 537.042 76.5689 534.889 76.8134 532.75C76.961 532.75 80.9339 533.562 82.7174 533.131C83.5625 532.988 84.3661 532.662 85.0716 532.176C85.7771 531.689 86.3674 531.054 86.801 530.314C86.9705 529.952 87.0609 529.559 87.0664 529.159C87.072 528.759 86.9924 528.363 86.833 527.997C86.6736 527.63 86.4381 527.302 86.142 527.034C85.846 526.765 85.4962 526.563 85.1159 526.44C82.8404 525.714 79.421 528.322 78.1787 530.056C78.0926 530.167 77.2685 531.643 76.9487 532.344H76.8134C77.1209 530.201 77.619 528.089 78.3017 526.034C78.6584 524.89 79.0766 523.832 79.5317 522.799C81.3638 523.42 83.2803 523.756 85.2143 523.795C86.0503 523.742 86.8655 523.512 87.6056 523.12C88.3457 522.727 88.9939 522.182 89.507 521.52C89.7135 521.18 89.8458 520.799 89.8953 520.404C89.9448 520.009 89.9104 519.608 89.7943 519.228C89.6782 518.847 89.4831 518.495 89.2216 518.195C88.9601 517.894 88.6383 517.653 88.277 517.486C86.0999 516.502 82.4099 518.716 80.9831 520.315C80.9093 520.401 80.2205 521.36 79.7531 522.073C79.9499 521.606 80.1344 521.126 80.3435 520.696C81.0692 519.048 81.8564 517.584 82.5452 516.292C82.9511 515.567 83.3324 514.915 83.6891 514.3C85.5972 514.012 87.4483 513.427 89.1749 512.566C89.9105 512.127 90.5415 511.534 91.0237 510.826C91.506 510.119 91.8279 509.314 91.967 508.47C91.9984 508.074 91.946 507.677 91.813 507.303C91.6801 506.929 91.4697 506.588 91.1957 506.301C90.9217 506.014 90.5901 505.788 90.2228 505.638C89.8555 505.489 89.4607 505.418 89.0642 505.432C86.6903 505.567 84.4394 509.232 83.9105 511.299C83.9105 511.471 83.4554 514.349 83.5046 514.337C83.1479 514.915 82.7666 515.567 82.3607 516.231C81.635 517.461 80.8232 518.962 80.0483 520.597C79.1954 522.353 78.4439 524.156 77.7974 525.997C77.0994 528.034 76.5849 530.129 76.2599 532.258C76.2657 532.282 76.2657 532.307 76.2599 532.332C76.1615 531.643 75.8048 529.724 75.7679 529.576C75.1529 527.535 72.7544 523.955 70.3682 523.918C69.9728 523.923 69.5827 524.01 69.2232 524.175C68.8638 524.34 68.5431 524.578 68.2821 524.875C68.021 525.172 67.8254 525.521 67.708 525.899C67.5906 526.276 67.5541 526.675 67.6007 527.067C67.7719 527.907 68.1249 528.699 68.6349 529.387C69.1449 530.076 69.7995 530.644 70.5527 531.052C72.3669 531.849 74.291 532.368 76.2599 532.59C75.9551 534.795 75.7948 537.018 75.7802 539.244C75.7802 540.474 75.7802 541.84 75.7802 543.156C75.6695 542.553 75.5711 542.024 75.5465 541.926C74.9315 539.97 72.5699 536.341 70.1099 536.28C69.7129 536.284 69.3212 536.372 68.9603 536.537C68.5994 536.703 68.2773 536.942 68.0151 537.241C67.7529 537.539 67.5564 537.889 67.4384 538.268C67.3204 538.647 67.2835 539.047 67.3301 539.441C67.5074 540.28 67.8641 541.07 68.3758 541.758C68.8875 542.446 69.542 543.015 70.2944 543.426C72.0607 544.199 73.9362 544.693 75.854 544.89C75.854 545.394 75.854 545.899 75.854 546.403C75.9647 548.863 76.0877 551.212 76.1369 553.574C76.1369 554.398 76.1369 555.222 76.1369 556.034L75.9401 554.988C75.3128 552.946 72.9266 549.379 70.5404 549.33C70.1438 549.334 69.7525 549.422 69.3922 549.587C69.0318 549.753 68.7105 549.993 68.4492 550.291C68.1879 550.59 67.9927 550.94 67.8761 551.319C67.7596 551.698 67.7244 552.098 67.7729 552.491C67.9457 553.33 68.2993 554.121 68.8092 554.81C69.319 555.498 69.9728 556.067 70.7249 556.477C72.4242 557.246 74.2339 557.744 76.0877 557.953C76.0877 558.801 76.0139 559.638 75.9401 560.413C75.9278 561.064 75.9032 561.606 75.8048 562.11Z" fill="#DBDBDB"/>
<path id="Vector_123" d="M386.011 534.386C385.961 535.165 386.083 535.945 386.368 536.672C386.653 537.399 387.093 538.054 387.659 538.592C389.086 539.73 390.673 540.651 392.37 541.323C392.37 541.323 392.64 538.703 392.628 538.543C392.628 536.6 391.337 532.885 389.246 532.282C388.894 532.182 388.525 532.158 388.163 532.213C387.802 532.267 387.456 532.399 387.15 532.598C386.843 532.797 386.583 533.06 386.386 533.368C386.19 533.677 386.062 534.024 386.011 534.386Z" fill="#DBDBDB"/>
<path id="Vector_124" d="M420.156 550.179C420.707 551.903 421.511 553.537 422.542 555.025C422.542 555.025 424.202 552.996 424.288 552.848C425.322 551.2 426.33 547.424 424.928 545.763C424.687 545.495 424.392 545.28 424.062 545.133C423.733 544.986 423.376 544.91 423.015 544.91C422.655 544.91 422.298 544.986 421.968 545.133C421.639 545.28 421.344 545.495 421.103 545.763C420.637 546.388 420.311 547.106 420.148 547.868C419.984 548.63 419.987 549.418 420.156 550.179Z" fill="#DBDBDB"/>
<path id="Vector_125" d="M438.544 547.018C436.675 545.935 433.12 547.596 431.681 548.887C431.558 549.01 429.811 550.978 429.848 551.003C429.282 551.261 428.68 551.544 428.04 551.864C426.81 552.479 425.494 553.168 424.092 554.029C422.559 554.929 421.081 555.919 419.664 556.993C418.075 558.191 416.597 559.528 415.248 560.991C415.519 560.412 416.22 558.777 416.257 558.641C416.81 556.784 416.786 552.873 415.027 551.643C414.723 551.447 414.382 551.318 414.026 551.263C413.669 551.208 413.305 551.229 412.957 551.324C412.609 551.419 412.284 551.586 412.005 551.815C411.726 552.044 411.498 552.329 411.337 552.651C411.05 553.377 410.925 554.157 410.969 554.937C411.014 555.716 411.227 556.476 411.595 557.165C412.567 558.673 413.761 560.025 415.137 561.175C413.802 562.695 412.569 564.301 411.447 565.984C410.783 566.956 410.156 567.965 409.529 568.986C409.738 568.469 409.934 568.026 409.947 567.952C410.5 566.095 410.476 562.184 408.717 560.954C408.414 560.758 408.074 560.628 407.718 560.572C407.362 560.516 406.998 560.536 406.65 560.63C406.302 560.724 405.978 560.89 405.698 561.117C405.418 561.345 405.19 561.628 405.027 561.95C404.737 562.675 404.61 563.455 404.652 564.234C404.695 565.014 404.906 565.775 405.273 566.464C406.211 567.935 407.368 569.254 408.704 570.375L408.003 571.605C406.872 573.487 405.765 575.369 404.609 577.19C404.215 577.829 403.784 578.42 403.379 579.059C403.575 578.616 403.723 578.235 403.747 578.174C404.301 576.316 404.276 572.405 402.517 571.175C402.215 570.979 401.875 570.849 401.518 570.793C401.162 570.738 400.799 570.757 400.451 570.851C400.103 570.945 399.778 571.111 399.499 571.339C399.219 571.566 398.99 571.85 398.827 572.171C398.543 572.898 398.419 573.677 398.464 574.457C398.508 575.236 398.721 575.996 399.086 576.685C399.989 578.12 401.109 579.407 402.407 580.498C401.964 581.126 401.509 581.728 401.054 582.319C400.599 582.909 400.439 583.106 400.094 583.487L399.086 584.594C398.422 585.283 397.745 585.996 397.081 586.648C396.626 587.116 396.183 587.534 395.74 587.977C396.146 587.337 396.97 586.083 396.97 585.972C397.642 584.403 397.901 582.688 397.721 580.99C397.804 580.821 397.87 580.644 397.917 580.461C398.022 580.116 398.053 579.753 398.008 579.395C397.963 579.037 397.843 578.693 397.657 578.384C397.47 578.075 397.22 577.81 396.924 577.604C396.628 577.398 396.291 577.257 395.937 577.19C393.797 576.845 391.078 579.65 390.205 581.396C390.144 581.507 389.713 582.626 389.443 583.413C389.541 582.958 389.627 582.503 389.713 582.036C389.885 581.101 390.033 580.154 390.205 579.145L390.39 577.657C390.464 577.165 390.476 576.624 390.525 576.107C390.599 574.877 390.623 573.647 390.623 572.417C392.315 572.783 394.054 572.887 395.777 572.725C396.541 572.591 397.266 572.293 397.903 571.851C398.541 571.41 399.074 570.835 399.467 570.166C399.622 569.84 399.707 569.485 399.717 569.124C399.726 568.763 399.66 568.404 399.522 568.07C399.384 567.736 399.178 567.435 398.916 567.186C398.654 566.937 398.344 566.745 398.003 566.624C395.937 565.972 392.825 568.346 391.694 569.92C391.62 570.019 390.943 571.249 390.574 571.925C390.574 571.175 390.574 570.437 390.574 569.687C390.476 567.522 390.316 565.332 390.168 563.143C390.168 562.467 390.082 561.802 390.045 561.138C391.797 561.523 393.597 561.639 395.384 561.483C396.147 561.344 396.871 561.042 397.508 560.599C398.145 560.155 398.679 559.58 399.074 558.912C399.229 558.587 399.314 558.232 399.323 557.872C399.332 557.512 399.266 557.154 399.128 556.821C398.99 556.488 398.783 556.188 398.522 555.94C398.26 555.692 397.95 555.502 397.61 555.382C395.543 554.718 392.432 557.104 391.3 558.678C391.214 558.789 390.23 560.56 390.008 561.015C389.922 559.539 389.836 558.075 389.824 556.624C389.791 554.664 389.89 552.704 390.119 550.757C391.879 551.144 393.687 551.264 395.482 551.114C396.245 550.975 396.97 550.673 397.607 550.23C398.243 549.786 398.777 549.211 399.172 548.543C399.325 548.217 399.408 547.862 399.415 547.502C399.423 547.141 399.355 546.783 399.216 546.451C399.077 546.118 398.87 545.819 398.608 545.571C398.346 545.323 398.036 545.133 397.696 545.013C395.629 544.349 392.518 546.735 391.398 548.309C391.324 548.408 390.574 549.748 390.168 550.4H390.045C390.328 548.446 390.781 546.52 391.398 544.644C391.718 543.611 392.099 542.639 392.481 541.704C394.149 542.273 395.896 542.576 397.659 542.602C398.437 542.555 399.195 542.34 399.882 541.97C400.568 541.601 401.165 541.086 401.632 540.462C401.827 540.155 401.955 539.81 402.007 539.451C402.058 539.091 402.032 538.724 401.931 538.375C401.83 538.026 401.655 537.702 401.419 537.426C401.183 537.149 400.891 536.926 400.562 536.772C398.582 535.886 395.236 537.903 393.932 539.355C393.932 539.429 393.231 540.302 392.788 540.954C392.973 540.536 393.145 540.093 393.329 539.724C393.994 538.223 394.695 536.883 395.334 535.714C395.703 535.05 396.048 534.484 396.367 533.906C398.103 533.632 399.786 533.097 401.361 532.319C402.026 531.923 402.597 531.388 403.036 530.752C403.476 530.115 403.773 529.391 403.907 528.629C403.933 528.27 403.884 527.909 403.761 527.569C403.639 527.23 403.448 526.92 403.199 526.659C402.949 526.399 402.649 526.193 402.315 526.056C401.982 525.918 401.623 525.852 401.263 525.862C399.098 525.997 397.056 529.343 396.564 531.212C396.564 531.372 396.158 533.992 396.195 533.98C395.863 534.496 395.531 535.062 395.162 535.689C394.498 536.858 393.76 538.149 393.059 539.662C392.277 541.259 391.595 542.902 391.017 544.582C390.346 546.456 389.848 548.387 389.529 550.351C389.523 550.375 389.523 550.401 389.529 550.425C389.43 549.798 389.111 548.051 389.074 547.965C388.508 546.108 386.331 542.848 384.154 542.811C383.793 542.815 383.437 542.896 383.109 543.047C382.781 543.198 382.489 543.416 382.251 543.688C382.013 543.959 381.835 544.278 381.728 544.623C381.622 544.967 381.589 545.331 381.632 545.689C381.794 546.454 382.119 547.174 382.587 547.801C383.054 548.427 383.651 548.945 384.338 549.318C385.98 550.039 387.722 550.508 389.504 550.708C389.222 552.713 389.079 554.735 389.074 556.759C389.074 557.989 389.074 559.133 389.074 560.326C388.975 559.785 388.877 559.293 388.864 559.232C388.299 557.374 386.122 554.115 383.944 554.09C383.584 554.093 383.228 554.172 382.9 554.321C382.573 554.471 382.28 554.688 382.042 554.959C381.804 555.229 381.626 555.547 381.519 555.891C381.412 556.235 381.38 556.598 381.423 556.956C381.582 557.72 381.906 558.44 382.371 559.066C382.836 559.693 383.432 560.211 384.117 560.585C385.709 561.296 387.402 561.757 389.135 561.95C389.135 562.405 389.135 562.86 389.197 563.328C389.295 565.517 389.406 567.706 389.455 569.847C389.455 570.609 389.455 571.359 389.455 572.097C389.357 571.618 389.283 571.212 389.27 571.15C388.705 569.305 386.528 566.046 384.35 566.009C383.989 566.013 383.633 566.094 383.306 566.245C382.978 566.396 382.685 566.614 382.447 566.885C382.21 567.157 382.032 567.476 381.925 567.82C381.818 568.165 381.786 568.529 381.829 568.887C381.987 569.65 382.31 570.369 382.775 570.994C383.241 571.618 383.837 572.134 384.523 572.503C386.081 573.21 387.742 573.667 389.443 573.856C389.443 574.619 389.381 575.382 389.307 576.12C389.307 576.624 389.234 577.116 389.147 577.62L388.926 579.108C388.754 580.043 388.582 581.015 388.385 581.925C388.262 582.552 388.127 583.155 387.991 583.77C387.991 583.008 387.991 581.544 387.917 581.421C387.647 579.49 385.986 575.947 383.846 575.578C383.489 575.53 383.126 575.557 382.781 575.657C382.435 575.757 382.114 575.929 381.838 576.161C381.562 576.392 381.338 576.679 381.18 577.002C381.022 577.326 380.933 577.679 380.919 578.038C380.957 578.819 381.167 579.581 381.532 580.272C381.898 580.963 382.411 581.565 383.034 582.036C384.556 582.998 386.215 583.723 387.954 584.188C387.733 585.185 387.499 586.156 387.266 587.079C387.179 587.448 387.081 587.805 386.995 588.149L388.323 588.26C388.385 587.964 388.459 587.669 388.52 587.374C388.754 586.353 388.987 585.258 389.209 584.139C390.3 584.18 391.393 584.155 392.481 584.065C393.222 585.627 394.174 587.08 395.31 588.383L395.039 588.629C398.791 588.801 402.591 588.862 406.441 588.838C406.456 588.487 406.393 588.138 406.257 587.815C406.121 587.491 405.915 587.202 405.654 586.968C404.055 585.504 400.242 586.365 398.557 587.325C398.458 587.325 397.438 588.112 396.81 588.555L397.794 587.546C398.459 586.857 399.098 586.156 399.799 585.406L400.771 584.262C401.103 583.893 401.41 583.45 401.743 583.032C402.468 582.073 403.169 581.064 403.846 580.031C405.059 581.27 406.452 582.32 407.979 583.143C408.695 583.456 409.471 583.609 410.253 583.592C411.034 583.575 411.803 583.388 412.505 583.044C412.814 582.859 413.081 582.61 413.287 582.314C413.493 582.019 413.635 581.683 413.702 581.329C413.77 580.974 413.761 580.61 413.678 580.259C413.595 579.908 413.438 579.579 413.219 579.293C411.866 577.596 407.954 577.878 406.146 578.567C406.035 578.567 404.793 579.244 404.116 579.613C404.51 578.998 404.916 578.383 405.346 577.731C406.466 575.874 407.536 573.955 408.618 572.048C408.95 571.458 409.282 570.818 409.627 570.302C410.874 571.588 412.309 572.679 413.883 573.537C414.599 573.848 415.374 574.002 416.155 573.987C416.936 573.972 417.705 573.789 418.409 573.45C418.718 573.263 418.984 573.014 419.191 572.717C419.397 572.421 419.539 572.084 419.608 571.73C419.676 571.375 419.67 571.01 419.588 570.658C419.507 570.306 419.352 569.975 419.135 569.687C417.77 568.002 413.858 568.272 412.05 568.961C411.915 568.961 410.131 569.945 409.688 570.191C410.414 568.961 411.164 567.657 411.952 566.501C413.006 564.847 414.169 563.265 415.432 561.765C416.687 563.058 418.13 564.152 419.713 565.013C420.426 565.331 421.199 565.488 421.98 565.473C422.76 565.458 423.527 565.271 424.227 564.927C424.537 564.742 424.805 564.494 425.012 564.199C425.22 563.904 425.363 563.568 425.431 563.214C425.5 562.859 425.492 562.494 425.41 562.143C425.328 561.792 425.172 561.462 424.953 561.175C423.6 559.478 419.688 559.748 417.88 560.449C417.757 560.449 416.392 561.2 415.752 561.544L415.679 561.446C416.982 559.968 418.419 558.613 419.971 557.399C420.82 556.71 421.656 556.107 422.431 555.542C423.517 556.93 424.806 558.145 426.256 559.146C426.932 559.536 427.685 559.775 428.463 559.845C429.24 559.915 430.023 559.815 430.758 559.551C431.091 559.401 431.388 559.182 431.629 558.908C431.871 558.634 432.051 558.311 432.158 557.962C432.265 557.613 432.297 557.245 432.25 556.883C432.204 556.521 432.081 556.172 431.89 555.861C430.721 554.029 426.81 553.869 424.94 554.361C424.83 554.361 423.833 554.779 423.095 555.062L424.239 554.312C425.617 553.426 426.945 552.713 428.126 552.085C428.79 551.729 429.356 551.421 429.983 551.138C431.581 551.873 433.282 552.358 435.026 552.577C435.806 552.609 436.584 552.471 437.306 552.174C438.028 551.877 438.677 551.427 439.208 550.855C439.443 550.57 439.614 550.237 439.708 549.88C439.802 549.522 439.819 549.149 439.756 548.784C439.693 548.42 439.552 548.074 439.343 547.769C439.134 547.464 438.861 547.208 438.544 547.018Z" fill="#DBDBDB"/>
<path id="Vector_126" d="M214.721 548.777C216.529 549.244 220.65 548.457 220.65 548.457C220.65 548.457 219.309 545.899 219.21 545.751C217.98 544.004 214.598 541.348 212.322 542.061C211.946 542.187 211.6 542.391 211.308 542.659C211.016 542.928 210.784 543.256 210.627 543.62C210.47 543.985 210.392 544.379 210.398 544.775C210.404 545.172 210.494 545.563 210.662 545.923C211.091 546.665 211.676 547.304 212.377 547.797C213.078 548.29 213.878 548.624 214.721 548.777Z" fill="#DBDBDB"/>
<path id="Vector_127" d="M249.69 535.05C249.636 535.906 249.771 536.763 250.083 537.562C250.395 538.361 250.878 539.082 251.498 539.675C252.728 541.052 256.615 542.676 256.627 542.676C256.639 542.676 256.922 539.81 256.91 539.626C256.91 537.498 255.495 533.414 253.22 532.738C252.835 532.637 252.434 532.617 252.041 532.681C251.648 532.745 251.273 532.891 250.941 533.109C250.608 533.327 250.325 533.612 250.109 533.947C249.894 534.281 249.751 534.657 249.69 535.05Z" fill="#DBDBDB"/>
<path id="Vector_128" d="M224.278 558.543C224.413 558.481 228.153 556.956 229.407 555.616C230.022 555.028 230.503 554.316 230.819 553.526C231.136 552.737 231.279 551.889 231.24 551.04C231.186 550.647 231.05 550.27 230.841 549.934C230.632 549.597 230.354 549.309 230.025 549.087C229.696 548.865 229.325 548.715 228.934 548.647C228.544 548.579 228.143 548.594 227.759 548.691C225.459 549.343 224.069 553.402 223.971 555.529C223.971 555.665 224.094 557.35 224.167 558.149H224.032C223.102 556.192 222.353 554.154 221.794 552.061C221.461 550.917 221.215 549.81 220.994 548.715C222.87 548.222 224.658 547.442 226.295 546.403C226.981 545.89 227.547 545.234 227.953 544.479C228.359 543.725 228.595 542.891 228.645 542.036C228.635 541.64 228.541 541.251 228.37 540.894C228.199 540.536 227.955 540.219 227.653 539.963C227.351 539.706 226.999 539.516 226.619 539.405C226.238 539.294 225.839 539.264 225.447 539.318C223.085 539.699 221.24 543.586 220.92 545.689C220.92 545.812 220.92 546.993 220.846 547.854C220.748 547.362 220.65 546.858 220.576 546.378C220.281 544.607 220.121 542.959 219.998 541.458C219.924 540.622 219.887 539.872 219.85 539.17C221.272 537.87 222.487 536.36 223.454 534.693C223.824 533.928 224.023 533.091 224.035 532.241C224.048 531.392 223.875 530.549 223.528 529.773C223.336 529.426 223.073 529.123 222.756 528.885C222.439 528.646 222.076 528.477 221.689 528.389C221.302 528.301 220.902 528.295 220.513 528.373C220.124 528.45 219.755 528.609 219.432 528.838C217.525 530.265 217.673 534.558 218.374 536.575C218.374 536.747 219.678 539.367 219.703 539.343C219.703 540.019 219.703 540.745 219.801 541.544C219.899 543.008 220.022 544.669 220.281 546.464C220.535 548.403 220.9 550.325 221.375 552.221C221.908 554.328 222.62 556.385 223.503 558.371V558.432C223.036 557.916 221.683 556.513 221.572 556.415C219.924 555.05 215.963 553.389 213.946 554.668C213.618 554.89 213.341 555.179 213.132 555.515C212.924 555.852 212.788 556.228 212.735 556.621C212.681 557.013 212.711 557.412 212.822 557.792C212.934 558.172 213.124 558.524 213.38 558.826C213.987 559.431 214.719 559.896 215.524 560.189C216.329 560.482 217.188 560.596 218.042 560.523C219.986 560.188 221.868 559.561 223.626 558.666C224.532 560.563 225.559 562.399 226.701 564.164L227.439 564.078C226.27 562.302 225.214 560.453 224.278 558.543Z" fill="#DBDBDB"/>
<path id="Vector_129" d="M233.933 558.236C232.064 558.764 230.772 561.581 230.33 563.758C232.568 563.512 234.794 563.303 236.984 563.119C237.382 562.337 237.536 561.455 237.427 560.585C237.37 560.192 237.231 559.816 237.02 559.481C236.809 559.145 236.53 558.857 236.201 558.636C235.872 558.415 235.5 558.265 235.109 558.196C234.719 558.127 234.318 558.14 233.933 558.236Z" fill="#DBDBDB"/>
<path id="Vector_130" d="M262.334 558.211C260.059 557.485 256.639 560.093 255.397 561.827L255.077 562.393C257.968 562.393 260.772 562.577 263.491 562.823C263.669 562.599 263.822 562.356 263.946 562.098C264.115 561.739 264.207 561.349 264.216 560.953C264.226 560.557 264.152 560.163 264.001 559.797C263.849 559.431 263.622 559.101 263.335 558.828C263.048 558.555 262.707 558.344 262.334 558.211Z" fill="#DBDBDB"/>
<path id="Vector_131" d="M247.525 556.624C247.129 556.63 246.739 556.719 246.379 556.885C246.02 557.052 245.699 557.291 245.439 557.589C245.178 557.887 244.982 558.237 244.865 558.615C244.748 558.993 244.711 559.392 244.758 559.785C244.904 560.836 245.408 561.805 246.184 562.528C248.485 562.442 250.735 562.393 252.949 562.393C252.946 562.356 252.946 562.319 252.949 562.282C252.31 560.253 249.911 556.673 247.525 556.624Z" fill="#DBDBDB"/>
<path id="Vector_132" d="M221.289 564.841L222.765 564.644C222.265 564.617 221.765 564.684 221.289 564.841Z" fill="#DBDBDB"/>
</g>
</g>
</svg>
